<?xml version="1.0" standalone="no"?><!DOCTYPE svg PUBLIC "-//W3C//DTD SVG 20010904//EN"
    "http://www.w3.org/TR/2001/REC-SVG-20010904/DTD/svg10.dtd">
<svg version="1.0" xmlns="http://www.w3.org/2000/svg" width="3508.000000pt" height="3508.000000pt"
    viewBox="0 0 3508.000000 3508.000000" preserveAspectRatio="xMidYMid meet">

    <g transform="translate(0.000000,3508.000000) scale(0.100000,-0.100000)" fill="#000000"
        stroke="none">
        <path d="M4768 35073 c-9 -2 -22 -21 -29 -41 -15 -47 -25 -60 -63 -77 -28 -12
-58 -29 -106 -57 -8 -5 -22 -11 -31 -14 -9 -3 -31 -26 -50 -50 -35 -47 -54
-55 -63 -26 -5 14 -24 22 -73 31 -36 7 -79 19 -94 27 -39 20 -49 18 -49 -11 0
-23 -4 -25 -42 -25 -51 0 -114 27 -148 63 -27 29 -54 35 -67 14 -4 -7 -24 -23
-44 -35 -50 -30 -153 -149 -174 -202 -4 -8 -13 -26 -21 -40 -53 -90 -54 -126
-2 -115 18 4 38 8 43 9 15 2 6 -96 -11 -115 -8 -8 -14 -20 -14 -25 0 -6 -13
-22 -28 -37 -16 -15 -42 -55 -58 -90 -16 -34 -37 -68 -46 -75 -10 -7 -18 -20
-18 -28 0 -8 -8 -15 -17 -15 -88 -7 -99 -10 -122 -34 -20 -19 -25 -33 -22 -64
1 -21 -2 -42 -8 -46 -7 -3 -11 -41 -11 -90 0 -81 -1 -84 -30 -105 -16 -12 -35
-18 -41 -15 -12 8 -49 -22 -49 -41 0 -7 -17 -26 -37 -43 -30 -25 -47 -31 -85
-31 -34 0 -51 -5 -60 -18 -7 -10 -18 -21 -25 -25 -15 -9 -80 21 -88 41 -5 15
10 84 26 115 11 21 0 22 -46 3 -24 -10 -35 -21 -35 -36 0 -11 -18 -45 -41 -75
-22 -30 -43 -68 -45 -85 -6 -36 -44 -99 -60 -100 -7 0 -28 -16 -47 -36 -19
-20 -40 -42 -46 -48 -7 -6 -22 -21 -33 -33 -13 -14 -34 -23 -52 -24 -28 0 -37
-10 -90 -90 -32 -49 -64 -89 -70 -89 -15 0 -66 -52 -66 -67 0 -5 -9 -20 -20
-33 -11 -13 -20 -29 -20 -36 0 -7 -11 -25 -24 -41 -19 -23 -37 -60 -41 -83 0
-3 -8 -16 -17 -30 -25 -38 -46 -91 -53 -131 -3 -20 -16 -48 -29 -62 -14 -15
-26 -44 -30 -71 -6 -36 -15 -52 -45 -78 -23 -20 -41 -46 -45 -65 -4 -17 -14
-37 -22 -44 -8 -6 -14 -17 -14 -24 0 -6 -13 -30 -28 -51 -15 -21 -34 -55 -42
-74 -8 -19 -29 -60 -47 -90 -18 -30 -33 -60 -33 -66 0 -5 -9 -28 -19 -50 -11
-22 -23 -54 -27 -70 -4 -16 -24 -45 -44 -64 -26 -25 -41 -50 -49 -84 -7 -28
-21 -69 -32 -92 -10 -24 -19 -48 -19 -54 0 -5 -4 -18 -9 -28 -6 -9 -17 -41
-26 -69 -9 -29 -24 -59 -34 -65 -37 -28 -60 -71 -67 -126 -8 -65 -84 -265
-113 -296 -13 -15 -21 -44 -26 -101 -4 -44 -13 -92 -21 -106 -7 -15 -13 -55
-13 -90 -1 -85 -18 -150 -71 -264 -29 -61 -81 -254 -108 -400 -14 -78 -47
-204 -77 -295 -8 -25 -15 -53 -15 -63 0 -18 -16 -50 -39 -79 -9 -11 -14 -57
-17 -145 -5 -164 -22 -391 -29 -404 -7 -11 -24 -196 -28 -310 -3 -56 -9 -85
-23 -105 -17 -26 -19 -47 -19 -184 0 -284 14 -650 26 -672 13 -24 32 -151 32
-213 0 -22 -5 -114 -11 -205 -6 -91 -8 -217 -5 -281 5 -94 3 -122 -10 -147
-21 -42 -26 -68 -37 -192 -5 -58 -16 -130 -24 -160 -9 -34 -20 -149 -27 -300
-16 -329 -16 -320 4 -335 38 -28 97 11 97 65 1 33 24 63 47 58 21 -4 41 -69
50 -170 5 -62 4 -68 -20 -91 l-26 -24 2 -217 c2 -167 5 -219 15 -225 22 -13
58 -102 66 -161 4 -30 14 -62 22 -71 15 -16 29 -76 48 -199 9 -58 15 -76 29
-78 9 -2 17 -1 17 2 0 3 9 51 19 108 11 57 24 153 31 213 18 178 28 214 66
253 19 19 34 41 34 47 0 12 21 25 41 25 5 0 9 -8 9 -17 0 -10 9 -33 20 -51 11
-18 20 -41 20 -50 0 -10 11 -52 25 -93 15 -43 30 -118 36 -179 7 -67 18 -118
30 -142 15 -30 19 -58 19 -147 0 -100 -2 -111 -20 -121 -11 -6 -22 -23 -26
-38 -3 -15 -13 -41 -22 -59 -15 -30 -15 -39 8 -145 13 -62 23 -126 22 -143 -3
-42 6 -75 21 -75 16 0 67 -78 67 -102 0 -10 11 -50 24 -90 29 -91 45 -154 61
-241 8 -45 19 -75 34 -88 12 -12 21 -32 21 -49 0 -23 5 -30 19 -30 10 0 22 -7
25 -16 11 -28 93 -57 142 -49 38 5 45 3 58 -17 8 -13 24 -68 34 -121 18 -91
22 -101 61 -140 22 -24 41 -48 41 -55 0 -19 28 -14 34 6 4 11 17 25 31 32 21
11 30 11 65 -5 57 -26 67 -13 51 60 -8 34 -19 59 -31 65 -35 19 -70 139 -72
248 -1 50 5 78 21 111 11 25 21 57 21 72 0 55 16 78 60 85 36 6 40 10 40 35 0
15 6 52 14 81 20 76 26 186 36 653 6 251 15 449 24 510 8 55 17 161 21 235 4
74 13 164 20 200 7 36 16 108 20 160 4 52 13 140 21 195 8 55 19 136 24 180
13 100 18 115 36 115 8 0 14 10 14 22 0 12 9 31 20 43 25 27 62 129 54 149 -3
9 -2 16 4 16 5 0 15 20 22 44 7 25 18 47 26 50 8 3 14 14 14 23 0 19 46 66 75
77 9 3 15 11 14 18 -5 37 3 59 24 69 25 12 57 69 57 102 0 24 35 87 48 87 14
0 63 164 97 325 9 39 20 79 25 90 5 11 14 39 20 63 6 23 23 55 38 71 15 16 36
41 47 55 11 15 29 36 39 46 13 13 21 39 24 76 4 46 8 57 27 64 13 5 26 14 30
19 11 18 54 12 65 -8 5 -11 10 -31 10 -45 0 -28 14 -34 27 -13 7 10 38 115 47
157 2 8 8 27 14 41 5 14 15 43 22 65 7 25 26 51 46 67 32 26 34 27 44 8 5 -11
10 -43 10 -71 0 -43 3 -51 16 -46 9 3 19 6 24 6 5 0 11 9 15 19 9 30 33 32 62
5 39 -36 56 -28 70 36 11 49 32 80 55 80 13 0 18 -41 16 -115 -3 -80 9 -91 56
-50 16 14 31 25 33 25 2 0 8 -12 13 -26 13 -32 -2 -91 -26 -108 -14 -10 -16
-34 -16 -152 -1 -92 4 -148 12 -163 16 -31 7 -75 -36 -171 -19 -43 -34 -86
-34 -95 0 -23 -38 -75 -56 -75 -10 0 -14 12 -14 44 0 26 -6 48 -15 56 -8 7
-15 18 -15 25 0 7 -6 18 -14 24 -17 15 -56 -1 -56 -23 0 -7 -11 -22 -24 -34
-14 -11 -28 -37 -31 -56 -4 -19 -18 -44 -31 -57 -31 -29 -31 -57 1 -69 32 -12
32 -31 0 -58 -28 -25 -32 -48 -11 -77 7 -11 17 -35 21 -52 9 -45 21 -41 34 11
12 48 16 51 85 61 l46 7 18 -43 c10 -24 27 -72 38 -106 20 -67 40 -80 50 -35
3 15 14 54 23 87 l17 60 116 1 c105 0 117 -1 121 -18 7 -25 47 -24 47 1 0 48
93 28 111 -24 11 -30 17 -34 66 -40 65 -8 93 0 93 27 0 11 5 18 13 15 6 -2 12
-12 12 -22 0 -12 16 -24 48 -36 l48 -19 20 35 c12 19 22 35 24 35 2 0 29 -25
60 -55 32 -30 65 -55 73 -55 9 0 28 12 44 27 23 22 30 24 43 13 8 -7 25 -10
39 -6 31 8 63 -4 104 -39 l31 -26 -20 -36 -20 -36 32 -33 c18 -19 36 -34 41
-34 4 0 14 12 22 27 10 20 11 33 3 50 -13 28 3 49 43 58 16 3 31 13 34 21 7
18 46 19 46 0 0 -7 -18 -34 -41 -60 -34 -38 -39 -49 -29 -61 18 -21 47 -19 60
5 6 11 17 20 25 20 8 0 22 12 31 26 16 24 16 28 1 53 -8 15 -17 45 -19 66 -3
37 -1 40 22 42 14 0 31 1 38 2 7 1 12 16 12 40 0 39 20 68 40 56 5 -3 10 -23
10 -44 0 -43 14 -61 47 -61 16 0 23 6 23 19 0 11 -4 23 -10 26 -5 3 -10 19
-10 34 0 45 -26 98 -52 105 -47 12 -67 7 -83 -24 -20 -39 -54 -40 -82 -2 -14
19 -19 37 -16 59 4 21 0 38 -11 48 -22 22 -20 42 4 50 16 5 20 15 20 56 0 27
-4 49 -9 49 -5 0 -7 8 -5 18 6 21 -40 72 -64 72 -9 0 -32 -4 -50 -9 -28 -8
-36 -7 -53 10 -16 16 -19 32 -18 92 1 40 -2 86 -6 102 -6 26 -3 34 21 50 15
11 42 34 61 52 30 29 33 38 33 90 0 35 7 70 16 88 9 17 16 42 15 57 -3 63 36
102 59 58 9 -17 17 -19 53 -14 66 10 81 24 99 95 9 35 21 78 27 94 6 17 13 51
16 78 5 38 10 47 26 47 16 0 19 7 19 42 0 23 4 55 9 72 5 17 15 51 21 75 7 26
24 55 41 70 22 19 29 35 29 61 1 40 19 70 44 70 9 0 34 -11 54 -25 34 -23 38
-24 49 -9 8 10 9 23 4 33 -13 24 -25 161 -14 161 5 0 14 -5 20 -11 17 -17 61
17 68 54 4 18 15 50 25 72 9 22 21 56 25 75 4 19 13 42 20 50 30 34 53 89 48
110 -5 18 -2 21 13 18 26 -5 28 -75 3 -107 -11 -13 -19 -33 -19 -44 0 -28 48
-77 76 -77 30 0 49 48 36 92 -15 53 -8 138 16 186 25 46 36 52 52 23 14 -28
12 -52 -6 -72 -15 -16 -14 -20 13 -53 32 -41 60 -46 72 -13 7 17 4 26 -16 42
-43 35 -10 72 38 43 18 -11 23 -10 40 11 10 13 19 32 19 42 0 33 29 21 46 -18
9 -21 17 -55 19 -76 2 -28 12 -48 36 -73 39 -41 52 -42 91 -9 39 33 52 32 83
-9 15 -20 38 -36 56 -40 17 -3 47 -23 68 -46 20 -22 44 -40 52 -40 24 0 40
-58 29 -105 -5 -24 -6 -75 0 -125 8 -88 -2 -247 -19 -279 -5 -9 -12 -57 -16
-107 -3 -49 -11 -114 -17 -146 -14 -78 -8 -88 30 -50 34 33 42 36 79 26 31 -8
39 -45 33 -157 -3 -54 -2 -107 2 -118 14 -36 82 -17 90 25 2 11 16 23 33 29
47 15 73 44 67 74 -4 19 -1 24 9 21 8 -3 13 -15 12 -27 -2 -15 5 -25 22 -33
30 -13 59 -54 45 -63 -15 -9 -12 -25 4 -25 32 0 71 99 46 115 -5 3 -10 21 -10
39 0 24 7 38 30 54 39 29 51 28 120 -10 48 -27 63 -31 77 -22 10 6 18 20 18
31 1 11 17 34 37 51 40 35 52 78 35 126 -7 21 -6 30 3 36 18 11 40 1 40 -19 0
-9 6 -23 13 -29 6 -7 12 -16 13 -20 5 -64 37 -104 84 -106 23 -1 30 -5 26 -16
-29 -86 -30 -99 -11 -120 14 -16 27 -20 46 -16 17 3 32 0 38 -8 7 -8 25 -19
41 -26 28 -11 29 -15 25 -59 -2 -26 -13 -64 -26 -85 -16 -28 -20 -47 -16 -79
5 -37 -11 -88 -34 -107 -3 -3 -8 -11 -10 -19 -3 -8 -22 -16 -44 -18 -57 -6
-87 -24 -98 -58 -13 -41 -14 -41 -38 -12 -29 38 -90 38 -124 1 -20 -21 -28
-24 -39 -15 -11 10 -17 7 -30 -10 -8 -12 -13 -26 -9 -32 8 -12 -18 -57 -33
-57 -6 0 -14 7 -18 15 -7 20 -42 19 -50 -1 -3 -9 -6 -35 -6 -59 0 -55 -18 -98
-38 -90 -8 3 -22 -1 -31 -8 -9 -8 -41 -27 -71 -43 -30 -16 -57 -32 -58 -37 -2
-4 -20 -24 -41 -46 -27 -28 -34 -42 -27 -53 6 -11 -2 -30 -30 -69 -22 -30 -44
-63 -50 -74 -8 -14 -22 -20 -48 -20 -39 0 -41 -3 -26 -54 11 -39 -11 -84 -37
-74 -11 4 -14 0 -12 -18 2 -13 -2 -34 -9 -46 -17 -30 -15 -69 4 -98 11 -18 14
-36 10 -62 -4 -21 -10 -62 -14 -91 -5 -28 -13 -57 -20 -64 -7 -7 -12 -26 -12
-44 0 -24 7 -36 28 -50 38 -25 50 -43 57 -91 6 -39 9 -43 41 -49 23 -4 34 -12
34 -24 0 -9 9 -25 21 -36 11 -10 27 -33 34 -51 8 -18 19 -33 25 -33 6 0 15
-11 20 -24 11 -30 -2 -122 -18 -119 -6 2 -16 -5 -21 -15 -15 -29 -1 -69 34
-93 l32 -23 -17 -38 c-11 -24 -30 -46 -51 -57 -45 -24 -51 -63 -14 -87 25 -16
27 -16 55 11 30 29 42 28 46 -2 2 -10 9 -28 15 -41 10 -18 10 -27 1 -42 -18
-29 -15 -54 8 -75 22 -20 26 -45 9 -62 -6 -6 -9 -23 -7 -39 3 -25 8 -30 41
-35 36 -6 38 -4 44 22 7 35 20 37 32 7 12 -32 -31 -73 -86 -82 -55 -10 -63
-33 -18 -52 47 -19 78 -18 105 6 25 22 44 17 35 -9 -6 -20 10 -37 39 -42 11
-2 24 -18 30 -35 6 -16 21 -41 33 -54 25 -26 16 -50 -18 -50 -22 0 -37 -25
-37 -63 1 -47 54 -62 96 -27 22 18 22 21 7 43 -19 29 -9 41 18 22 35 -25 54
-4 62 70 6 56 4 72 -14 105 -19 37 -19 41 -5 85 12 34 13 49 5 59 -6 7 -16 51
-22 96 -5 46 -17 92 -25 104 -19 28 -20 172 0 179 8 3 16 30 20 74 10 115 20
150 49 182 15 17 27 35 27 41 0 13 34 30 59 30 18 0 20 4 14 32 l-6 32 21 -20
c34 -32 39 -98 13 -182 -27 -86 -31 -216 -8 -239 18 -18 53 -9 62 15 3 9 22
27 41 40 56 35 115 46 202 37 42 -5 104 -10 137 -11 33 -2 103 -9 155 -15 195
-24 502 -1 617 46 38 16 218 18 246 3 12 -6 23 -6 32 2 15 13 72 10 67 -3 -2
-5 9 -24 24 -44 l27 -36 -26 -19 c-37 -27 -34 -35 13 -43 44 -7 47 -15 25 -68
-23 -55 -44 -65 -128 -59 -67 4 -74 2 -95 -21 -23 -24 -28 -25 -97 -20 -40 3
-82 2 -92 -2 -28 -13 -146 -14 -162 -2 -7 6 -44 11 -82 11 -57 -1 -73 -5 -93
-23 -21 -19 -33 -22 -91 -19 -59 2 -68 0 -84 -20 l-17 -23 -23 25 c-24 25 -42
25 -73 -2 -10 -8 -24 -12 -32 -9 -10 4 -15 -4 -19 -26 -6 -41 7 -57 49 -57 50
0 82 -19 86 -49 2 -18 8 -25 20 -23 9 1 44 -9 77 -23 65 -27 115 -26 138 3 7
9 32 17 55 18 24 2 46 3 51 3 4 1 7 7 7 15 0 8 7 16 15 20 22 8 45 -3 38 -20
-3 -9 2 -14 16 -14 12 0 21 6 21 15 0 9 12 20 28 25 15 6 35 15 44 20 10 6 36
10 57 10 39 0 91 17 91 29 0 17 223 51 330 51 26 0 51 5 58 12 6 6 32 13 57
14 64 4 78 10 93 41 17 37 16 40 -18 47 -42 8 -57 49 -35 95 9 19 12 37 8 41
-18 16 -59 18 -77 4 -23 -16 -52 -18 -61 -4 -11 18 6 50 25 50 11 0 24 8 29
19 15 27 31 30 86 20 52 -10 65 -21 65 -56 0 -14 6 -23 16 -23 10 0 14 -6 11
-15 -4 -8 -2 -17 3 -20 5 -3 17 -30 25 -59 21 -71 46 -94 86 -79 26 10 33 8
58 -13 24 -20 33 -23 56 -14 42 16 53 12 77 -25 22 -33 60 -47 71 -27 11 17
-15 52 -48 66 -27 11 -37 23 -41 46 -4 20 -16 36 -34 45 -39 20 -54 43 -52 76
3 36 -6 37 -33 4 -18 -24 -73 -40 -74 -22 0 4 -7 20 -16 37 -21 40 -19 46 13
59 15 5 46 25 69 42 l43 33 26 -25 c14 -13 30 -34 35 -46 10 -27 37 -30 46 -7
3 10 1 30 -4 45 -9 24 -8 31 5 38 22 13 72 -7 72 -29 0 -10 9 -20 20 -23 11
-3 20 -12 20 -21 0 -20 27 -20 74 -1 42 18 98 12 118 -12 10 -13 8 -18 -10
-33 -28 -23 -28 -42 -1 -66 20 -18 21 -18 40 6 l19 25 0 -33 c0 -25 -8 -42
-31 -63 -26 -24 -29 -32 -19 -44 7 -8 19 -15 26 -15 8 0 31 -18 51 -41 21 -22
49 -45 63 -51 28 -13 24 -12 66 -4 27 6 32 3 49 -27 18 -33 18 -34 -5 -65 -28
-37 -19 -59 15 -36 29 19 60 107 46 132 -15 29 -99 102 -116 102 -9 0 -13 -4
-10 -10 3 -5 -6 -12 -21 -16 -21 -5 -31 -2 -45 17 -16 21 -16 27 -4 44 14 20
18 21 46 10 10 -4 33 12 67 44 47 45 55 49 73 38 16 -10 21 -9 29 3 20 31 11
64 -24 93 -60 47 -102 28 -79 -34 6 -16 7 -31 3 -34 -5 -3 -11 -19 -15 -35
-11 -51 -35 -34 -56 40 -6 25 -11 58 -10 73 1 24 -2 27 -25 25 -18 -2 -30 3
-38 17 -6 10 -17 26 -25 34 -10 11 -12 31 -7 78 l7 63 -41 40 c-47 46 -47 64
-1 68 33 3 33 4 27 46 -6 38 -4 44 16 53 33 15 68 -1 81 -37 9 -22 20 -31 44
-36 18 -3 36 -10 39 -15 3 -5 14 -9 25 -9 23 0 24 -21 4 -60 -18 -36 -23 -36
-70 -9 -21 13 -40 18 -44 13 -5 -5 -12 -34 -15 -65 -6 -44 -4 -58 8 -69 9 -7
16 -18 16 -24 0 -7 6 -21 14 -31 14 -19 15 -19 35 -1 25 22 27 49 6 66 -37 31
-1 59 46 36 18 -9 43 -12 64 -9 38 6 39 5 49 -99 3 -31 11 -69 18 -85 6 -15
13 -39 15 -53 11 -85 13 -89 41 -92 35 -4 54 -50 30 -74 -14 -15 -18 -14 -42
1 -26 17 -26 17 -26 -8 0 -14 11 -38 25 -53 21 -22 24 -34 19 -58 -3 -17 -10
-35 -15 -40 -14 -16 -10 -55 9 -88 17 -29 17 -30 -10 -53 -21 -18 -28 -33 -28
-59 0 -19 5 -38 10 -41 6 -4 10 -37 8 -78 -1 -40 3 -85 10 -102 7 -16 17 -49
22 -72 6 -24 20 -51 30 -61 20 -19 20 -19 0 -42 -21 -24 -27 -84 -10 -95 6 -4
17 -22 25 -42 13 -30 17 -33 30 -23 14 12 20 7 16 -14 -1 -5 3 -32 10 -62 10
-42 9 -63 -1 -101 -8 -26 -18 -51 -24 -55 -7 -5 -5 -12 7 -20 13 -10 17 -26
15 -68 -2 -82 11 -227 28 -295 8 -33 18 -97 23 -143 5 -50 16 -93 27 -110 10
-15 19 -35 19 -45 1 -9 15 -31 30 -47 28 -29 29 -32 17 -75 -16 -60 -16 -61
14 -89 23 -21 27 -34 31 -102 3 -44 9 -81 14 -84 5 -3 5 -21 0 -40 -5 -19 -12
-75 -16 -125 -4 -49 -12 -101 -17 -115 -6 -14 -14 -59 -18 -100 -5 -41 -14
-102 -20 -135 -30 -157 -29 -163 38 -230 26 -28 57 -63 68 -78 18 -25 27 -29
115 -39 135 -15 265 1 314 38 19 14 35 30 35 34 0 12 97 60 120 60 33 0 57 17
64 45 3 13 17 32 31 41 14 9 25 22 25 29 0 8 18 29 40 48 26 22 42 46 47 68 6
32 42 108 76 160 11 16 19 56 23 110 3 46 12 107 19 134 7 28 16 106 20 175 4
97 10 131 24 150 10 14 21 42 25 63 4 21 13 40 21 43 8 3 17 16 21 27 4 12 15
33 25 46 11 13 19 38 19 55 0 17 6 41 14 52 8 11 22 55 31 98 8 43 19 86 24
95 5 9 14 61 20 116 7 55 21 129 32 165 11 36 19 74 19 86 0 11 11 52 24 90
17 50 25 101 29 186 4 65 12 128 19 140 13 25 24 87 33 183 3 33 12 83 20 110
8 28 19 95 24 150 10 90 38 195 68 250 7 12 17 59 23 105 6 46 18 102 25 124
8 23 23 84 35 136 20 89 21 117 17 460 -4 355 -6 387 -42 588 -4 22 -11 32
-24 32 -12 0 -21 10 -25 25 -4 14 -12 25 -20 25 -15 0 -26 50 -26 116 0 44
-40 128 -64 137 -8 3 -21 26 -31 50 -16 43 -16 46 5 86 11 23 25 77 30 119 18
142 30 213 41 235 16 29 16 120 0 262 -7 66 -10 148 -7 182 4 34 2 142 -4 240
-5 98 -12 256 -15 352 -4 128 -10 179 -20 195 -11 15 -15 54 -15 156 0 103 -4
142 -16 165 -8 16 -15 48 -16 70 0 29 -8 50 -31 79 -30 39 -31 43 -35 165 -2
69 -8 133 -13 143 -5 9 -9 27 -9 40 0 13 -9 37 -20 53 -18 27 -20 47 -20 182
0 83 -5 164 -10 179 -6 15 -26 45 -45 65 -35 40 -51 78 -42 103 3 8 1 73 -4
146 -8 115 -12 136 -34 168 -22 32 -25 48 -26 132 -1 162 -8 187 -54 219 l-40
27 -5 96 c-4 79 -9 102 -28 127 -12 17 -22 45 -22 63 0 57 -53 288 -66 288
-10 0 -42 91 -73 210 -12 42 -30 87 -73 171 -10 20 -18 44 -18 54 0 9 -9 19
-19 22 -18 5 -121 144 -121 163 0 4 -7 21 -15 36 -8 16 -15 38 -15 49 0 11
-10 35 -23 54 -39 60 -47 76 -47 94 0 9 -4 17 -9 17 -5 0 -25 16 -45 35 -29
28 -36 42 -36 72 0 31 -9 47 -45 86 -30 31 -45 57 -45 74 0 14 -8 40 -19 57
-10 17 -21 52 -24 78 -4 26 -11 57 -17 68 -5 11 -15 29 -20 40 -5 11 -10 27
-10 35 0 8 -4 15 -8 15 -19 0 -123 110 -134 142 -16 45 -48 98 -60 98 -15 0
-63 52 -83 90 -20 38 -46 62 -90 84 -47 23 -111 90 -132 137 -6 15 -39 46 -72
70 -34 24 -61 48 -61 55 0 17 -84 64 -114 64 -14 0 -41 14 -59 30 -19 17 -40
30 -46 30 -6 0 -11 6 -11 14 0 13 -28 39 -99 94 -20 15 -31 34 -36 63 -8 44
-29 59 -105 73 -55 11 -90 27 -90 42 0 7 -10 19 -22 25 -13 6 -31 20 -41 30
-10 10 -30 22 -45 25 -31 8 -82 51 -82 71 0 8 -8 17 -17 20 -10 4 -39 28 -64
53 -27 27 -67 54 -95 64 -27 11 -56 24 -64 31 -35 29 -88 35 -297 35 l-215 0
-56 54 c-56 54 -57 55 -58 115 -2 93 1 92 -198 90 l-171 -1 -60 32 c-33 18
-70 38 -81 46 -14 8 -61 14 -131 15 -62 1 -116 7 -124 13 -8 6 -26 29 -39 51
-39 64 -51 69 -185 75 -118 6 -121 6 -175 43 l-55 37 -1325 -1 c-729 -1 -1333
-3 -1342 -6z m-164 -5850 c5 -35 21 -497 19 -568 0 -16 -4 -120 -8 -230 -7
-179 -6 -204 9 -233 28 -55 41 -37 81 111 16 60 29 72 39 35 12 -47 6 -105
-13 -130 -34 -43 -36 -74 -7 -99 28 -24 35 -59 12 -59 -8 0 -17 7 -20 16 -5
12 -13 14 -34 9 -15 -4 -37 -7 -50 -7 -29 2 -42 -30 -42 -106 -1 -87 -17 -197
-37 -239 -9 -21 -16 -50 -14 -64 2 -30 -38 -122 -67 -156 -17 -19 -30 -23 -74
-22 -29 0 -75 -4 -101 -10 -50 -12 -71 -8 -64 12 2 7 -7 25 -19 40 -19 22 -24
41 -24 83 0 60 -10 71 -53 55 -21 -8 -27 -19 -32 -58 -8 -55 -59 -173 -75
-173 -11 0 -11 -1 -15 168 -2 122 -2 122 23 135 22 10 28 23 39 92 13 76 13
118 -2 176 -5 18 -2 31 10 43 21 21 35 12 35 -22 0 -59 47 -72 61 -17 9 32 1
78 -12 70 -4 -3 -20 -3 -34 1 -53 13 -21 104 37 104 12 0 20 10 24 30 4 16 10
27 14 25 5 -3 17 7 27 21 18 25 20 25 37 9 9 -10 15 -24 12 -31 -19 -47 -20
-45 10 -29 31 16 42 36 43 75 1 14 7 37 15 52 8 15 20 52 26 82 6 31 15 58 20
61 4 3 11 46 15 96 6 78 10 92 26 96 12 3 19 14 19 28 0 24 23 55 42 55 6 0 7
15 3 38 -4 23 0 53 10 82 10 29 14 61 10 90 -5 44 11 146 34 203 6 16 11 41
11 56 0 54 26 56 34 4z m376 -523 c0 -20 -5 -30 -15 -30 -15 0 -21 40 -8 53
14 15 23 6 23 -23z m-650 -194 c0 -8 -7 -16 -15 -20 -15 -5 -21 14 -8 27 11
12 23 8 23 -7z m2415 -143 c-10 -42 -18 -18 -9 29 6 32 9 37 12 19 2 -12 1
-34 -3 -48z m-2445 17 c0 -33 -15 -48 -24 -24 -8 21 4 65 15 58 5 -3 9 -18 9
-34z m711 -77 c13 -36 4 -86 -21 -108 -19 -17 -20 -17 -30 9 -13 34 -13 67 0
100 13 34 38 33 51 -1z m-137 -24 c-3 -5 2 -29 11 -54 19 -57 11 -148 -16
-187 -10 -15 -19 -37 -19 -48 0 -16 -5 -21 -22 -18 -19 2 -22 8 -20 33 20 207
41 309 59 293 7 -6 10 -14 7 -19z m2826 -173 c-14 -14 -22 -2 -14 18 5 14 9
15 15 4 4 -7 4 -17 -1 -22z m197 -155 c14 -31 20 -57 15 -60 -5 -3 -13 -29
-17 -57 -5 -42 -14 -58 -45 -88 -60 -57 -69 -51 -66 47 2 45 -1 93 -6 105 -6
17 -3 32 9 52 14 24 14 31 3 45 -14 17 -15 17 20 32 33 14 55 -5 87 -76z
m-3112 -44 c14 -30 25 -60 25 -66 0 -14 -21 -65 -52 -127 -20 -39 -20 -43 -4
-74 9 -18 16 -43 16 -55 0 -26 -26 -51 -49 -47 -9 1 -27 -13 -40 -33 -36 -54
-55 -43 -63 35 -17 168 -20 149 23 170 43 23 44 24 54 67 6 29 4 34 -19 43
-32 12 -36 49 -6 57 11 3 20 8 20 12 0 17 42 71 55 71 8 0 26 -24 40 -53z
m221 -121 c-3 -14 -13 -26 -21 -26 -20 0 -30 46 -14 66 19 23 44 -5 35 -40z
m-212 -91 c7 -19 -3 -47 -15 -39 -12 7 -12 54 0 54 5 0 11 -7 15 -15z m-634
-176 c0 -5 -7 -9 -15 -9 -15 0 -20 12 -9 23 8 8 24 -1 24 -14z m850 -249 c0
-5 -7 -10 -15 -10 -8 0 -15 5 -15 10 0 6 7 10 15 10 8 0 15 -4 15 -10z m-644
-85 c3 -8 3 -19 0 -24 -10 -16 -36 -1 -36 20 0 22 28 26 36 4z m-546 -35 c0
-10 -7 -24 -16 -31 -14 -11 -18 -10 -30 6 -12 16 -12 21 2 36 19 21 44 14 44
-11z m4358 -130 c7 -63 12 -71 40 -68 21 2 32 13 47 45 15 32 26 42 44 43 25
0 25 -9 9 -115 -2 -13 6 -24 26 -33 26 -13 30 -13 38 2 15 27 46 19 64 -16 12
-23 17 -56 16 -111 -1 -68 1 -78 16 -75 9 2 27 19 40 38 21 32 28 35 75 37 29
0 59 3 67 5 9 2 16 -6 18 -19 3 -19 -1 -23 -22 -23 -14 0 -26 -4 -26 -9 0 -5
-9 -11 -20 -14 -24 -6 -28 -47 -5 -47 9 0 15 9 15 22 0 26 13 16 17 -14 2 -14
-8 -33 -28 -54 -21 -22 -30 -39 -27 -52 8 -28 -28 -54 -87 -64 -29 -4 -55 -15
-63 -25 -14 -20 -111 -30 -293 -32 -79 -1 -101 -5 -121 -20 -13 -11 -46 -22
-73 -26 -28 -4 -63 -13 -80 -20 -16 -8 -40 -16 -53 -20 -14 -4 -21 -13 -20
-23 2 -13 -8 -19 -45 -26 -34 -7 -46 -13 -43 -23 4 -8 -4 -17 -19 -23 -15 -6
-25 -17 -25 -29 0 -19 -46 -36 -73 -25 -8 3 -30 -5 -50 -16 -20 -12 -41 -19
-47 -15 -18 11 -11 43 15 69 28 28 33 51 10 42 -11 -4 -26 13 -53 54 -20 33
-43 59 -49 60 -19 0 -16 20 3 20 9 0 14 7 12 18 -2 9 -10 17 -18 17 -19 0 -14
45 7 60 14 11 22 95 12 139 -3 14 7 25 43 43 26 13 52 33 58 43 6 11 17 20 26
20 8 0 17 7 20 15 4 8 10 12 15 9 15 -9 59 24 59 44 0 9 12 30 26 45 24 26 30
28 74 22 50 -7 85 4 106 33 16 22 88 41 108 30 9 -5 31 -8 49 -6 25 2 31 7 29
21 -2 12 4 21 17 24 12 3 21 11 21 19 0 19 31 34 65 31 24 -1 31 -7 33 -27z
m1830 -402 c5 -7 13 -24 17 -38 10 -37 35 -92 56 -121 10 -14 22 -48 26 -75
l8 -49 45 -5 c34 -4 46 -10 48 -24 4 -17 -2 -18 -62 -14 l-66 4 0 -31 c0 -36
-6 -44 -47 -73 -26 -19 -36 -21 -53 -12 -24 13 -26 33 -5 50 12 10 15 30 13
88 -3 65 -1 76 17 86 36 20 45 51 14 51 -25 1 -39 16 -39 43 0 15 -9 35 -20
45 -19 16 -27 66 -13 80 11 12 50 8 61 -5z m214 -420 c-15 -15 -26 -4 -18 18
5 13 9 15 18 6 9 -9 9 -15 0 -24z m152 -210 c5 -23 3 -28 -13 -28 -21 0 -39
50 -26 71 10 15 31 -8 39 -43z m-3129 -768 c-3 -5 -10 -10 -16 -10 -5 0 -9 5
-9 10 0 6 7 10 16 10 8 0 12 -4 9 -10z m4260 -1294 c7 -42 -2 -96 -16 -96 -10
0 -12 83 -3 118 8 29 12 25 19 -22z m-650 -128 c7 -20 -9 -103 -20 -103 -6 0
-13 20 -16 45 -6 43 3 70 23 70 5 0 11 -6 13 -12z m-45 -308 c0 -43 -14 -54
-23 -18 -5 19 7 58 18 58 3 0 5 -18 5 -40z" />
        <path d="M4610 28106 c0 -9 5 -16 10 -16 6 0 10 4 10 9 0 6 -4 13 -10 16 -5 3
-10 -1 -10 -9z" />
        <path d="M4135 27857 c-9 -36 -1 -127 9 -102 4 11 14 32 22 47 21 39 18 78 -6
78 -12 0 -22 -9 -25 -23z" />
        <path d="M4155 35008 c-3 -8 0 -28 7 -44 l12 -29 4 34 c4 36 -13 65 -23 39z" />
        <path d="M3108 33951 c-36 -8 -64 -47 -72 -100 l-7 -44 28 18 c37 23 63 53 63
75 0 9 12 22 26 28 14 7 22 17 19 22 -7 11 -16 11 -57 1z" />
        <path d="M32810 31400 c-47 -4 -112 -15 -145 -23 -102 -25 -180 -49 -189 -58
-6 -5 -17 -9 -25 -9 -39 0 -277 -134 -311 -175 -7 -8 -18 -15 -24 -15 -31 0
-299 -302 -347 -391 -26 -49 -87 -174 -102 -209 -39 -91 -48 -117 -76 -224
-54 -201 -66 -305 -65 -571 0 -324 24 -486 102 -700 40 -109 108 -249 157
-321 25 -36 45 -69 45 -73 0 -4 43 -53 97 -110 140 -149 262 -244 393 -306 19
-9 44 -21 54 -27 56 -30 192 -69 346 -98 105 -20 135 -22 365 -17 137 3 268
10 290 15 22 6 74 18 115 27 337 75 640 301 847 630 28 44 112 222 119 250 4
17 10 35 13 40 20 30 62 193 80 305 7 41 16 100 21 130 27 157 21 512 -10 677
-32 170 -69 312 -87 335 -6 7 -13 24 -16 38 -4 14 -20 55 -37 90 -153 325
-438 599 -745 714 -181 68 -238 77 -520 81 -143 2 -298 0 -345 -5z m545 -258
c130 -35 204 -61 225 -76 8 -7 29 -18 45 -26 87 -43 240 -171 304 -255 104
-138 185 -285 216 -395 78 -270 90 -360 89 -640 -1 -268 -13 -367 -76 -590
-32 -114 -122 -307 -175 -377 -18 -24 -33 -45 -33 -48 0 -7 -78 -91 -120 -129
-19 -17 -45 -41 -57 -53 -13 -13 -27 -23 -30 -23 -4 0 -16 -9 -27 -19 -41 -37
-173 -105 -276 -141 -39 -14 -230 -53 -333 -68 -68 -10 -142 -3 -307 29 -139
28 -298 94 -402 168 -110 77 -235 215 -315 346 -11 18 -90 178 -113 230 -18
38 -51 171 -65 257 -8 48 -19 113 -24 145 -19 98 -14 400 9 547 27 178 50 274
83 346 8 19 29 67 46 105 17 39 36 77 41 85 5 8 19 32 30 53 12 21 29 46 38
56 9 10 24 28 32 41 32 49 131 157 180 195 28 22 59 47 68 55 90 78 260 156
412 190 52 12 100 24 105 26 6 2 80 2 165 0 135 -3 169 -7 265 -34z" />
        <path d="M17567 31332 c-24 -26 -24 -173 -1 -196 14 -14 69 -16 454 -16 l438
0 6 -22 c3 -13 6 -680 6 -1483 -1 -1368 1 -1461 17 -1472 11 -9 59 -13 150
-13 120 0 135 2 153 20 20 20 20 30 20 1487 0 822 3 1470 8 1475 5 5 202 9
438 8 359 0 433 2 449 14 17 12 20 26 20 101 0 74 -3 89 -19 101 -17 12 -179
14 -1071 14 -1006 0 -1053 -1 -1068 -18z" />
        <path d="M21156 31329 c-14 -11 -26 -27 -26 -34 0 -8 -11 -38 -24 -67 -13 -29
-34 -82 -46 -118 -12 -36 -36 -103 -55 -150 -18 -47 -54 -141 -80 -210 -25
-69 -53 -141 -60 -160 -7 -19 -37 -98 -65 -175 -29 -77 -60 -160 -70 -185 -10
-25 -35 -90 -55 -145 -20 -55 -41 -109 -45 -120 -5 -11 -21 -51 -35 -90 -14
-38 -37 -97 -50 -130 -13 -33 -27 -71 -30 -85 -4 -14 -13 -38 -20 -55 -17 -40
-91 -232 -116 -303 -11 -31 -25 -66 -30 -77 -5 -11 -24 -63 -43 -115 -51 -140
-85 -232 -95 -255 -5 -11 -26 -65 -46 -120 -20 -55 -41 -109 -45 -120 -5 -11
-12 -31 -16 -45 -3 -14 -14 -43 -24 -65 -10 -22 -32 -80 -50 -130 -19 -49 -41
-108 -51 -130 -31 -72 -33 -92 -11 -104 12 -6 80 -11 164 -11 114 0 148 3 166
16 12 8 22 20 22 25 0 10 89 256 110 304 4 11 15 40 23 65 21 62 64 180 125
340 28 74 54 149 58 165 4 17 16 42 26 58 l19 27 625 0 624 0 15 -32 c7 -18
26 -67 40 -108 14 -41 30 -82 34 -90 5 -9 12 -31 16 -50 4 -18 15 -47 24 -64
10 -17 22 -49 28 -71 6 -22 37 -107 68 -190 31 -82 63 -172 71 -199 7 -27 20
-59 28 -71 8 -12 18 -39 21 -59 12 -61 29 -66 208 -66 137 0 158 2 164 17 8
20 -10 90 -42 160 -14 29 -25 59 -25 66 0 7 -6 24 -14 39 -8 14 -19 43 -26 65
-6 21 -15 47 -20 58 -5 11 -30 76 -55 145 -25 69 -64 175 -87 235 -22 61 -51
139 -64 175 -13 36 -28 74 -33 85 -15 34 -71 184 -71 192 -1 4 -9 26 -20 48
-11 22 -19 48 -20 59 0 10 -9 35 -19 55 -11 20 -26 57 -35 84 -40 120 -49 145
-67 184 -10 24 -19 49 -19 56 0 7 -9 31 -20 52 -11 22 -24 54 -29 70 -5 17
-24 68 -41 115 -18 47 -49 133 -71 192 -21 59 -45 120 -53 137 -9 16 -16 35
-16 41 0 7 -6 26 -14 43 -8 18 -22 57 -31 87 -10 30 -21 60 -25 65 -4 6 -16
33 -25 60 -27 77 -70 192 -100 270 -14 39 -33 90 -41 115 -8 25 -18 54 -24 65
-5 11 -19 46 -30 77 -12 31 -30 68 -41 82 -20 26 -22 26 -153 26 -120 0 -136
-2 -160 -21z m196 -614 c16 -44 39 -109 52 -145 13 -36 38 -105 56 -155 17
-49 37 -103 45 -120 8 -16 18 -46 23 -65 6 -19 19 -57 30 -85 11 -27 25 -66
32 -85 7 -19 26 -71 42 -115 16 -44 34 -96 40 -115 5 -19 14 -39 18 -45 5 -5
16 -37 25 -70 10 -33 22 -65 27 -72 5 -6 18 -38 28 -70 10 -32 30 -89 44 -128
14 -38 22 -73 18 -77 -12 -12 -1056 -11 -1060 0 -3 11 56 195 82 253 8 19 21
54 29 79 35 105 90 256 97 265 4 6 17 39 29 75 32 102 60 183 70 205 21 44 71
188 71 201 0 8 6 25 14 37 8 12 32 76 54 142 60 179 59 177 84 173 17 -2 27
-20 50 -83z" />
        <path d="M23156 31335 c-15 -15 -16 -141 -16 -1595 0 -1422 2 -1580 16 -1594
23 -23 269 -23 302 0 l22 15 0 1251 c0 690 3 1255 8 1260 17 17 42 -5 89 -76
26 -39 50 -73 53 -76 3 -3 26 -34 51 -70 24 -36 46 -67 49 -70 7 -6 100 -134
120 -165 15 -23 89 -124 183 -250 26 -35 47 -67 47 -71 0 -4 7 -14 15 -23 30
-32 125 -162 125 -171 0 -6 4 -10 9 -10 4 0 22 -21 39 -47 51 -78 56 -86 72
-103 16 -19 27 -34 80 -110 19 -28 65 -91 103 -141 37 -49 67 -92 67 -95 0 -4
54 -78 115 -159 45 -59 115 -157 115 -161 0 -2 23 -33 50 -68 28 -35 50 -67
50 -71 0 -5 7 -15 16 -24 15 -15 63 -81 169 -231 28 -39 80 -111 118 -160 37
-50 67 -94 67 -98 0 -4 18 -27 40 -50 l41 -42 109 0 c97 0 112 2 130 20 20 20
20 33 20 1590 0 1557 0 1570 -20 1590 -18 18 -33 20 -155 20 -122 0 -137 -2
-155 -20 -21 -21 -21 -25 -18 -1270 3 -1106 1 -1250 -12 -1250 -8 0 -26 17
-40 36 -14 20 -40 55 -57 80 -18 24 -33 46 -33 49 0 3 -28 43 -62 88 -101 132
-106 139 -145 197 -21 30 -44 61 -51 69 -7 8 -21 26 -30 40 -14 22 -117 162
-155 211 -7 8 -29 40 -50 70 -21 30 -58 82 -82 115 -25 33 -66 90 -90 126 -25
37 -52 72 -60 79 -8 7 -15 17 -15 22 0 6 -12 24 -26 42 -28 35 -101 132 -124
166 -47 69 -89 127 -116 159 -17 20 -43 54 -58 76 -14 22 -55 81 -91 130 -35
50 -78 109 -95 133 -16 23 -34 48 -40 55 -15 16 -162 220 -204 282 -19 28 -46
63 -60 79 -14 16 -26 34 -26 41 0 6 -11 22 -25 35 -14 13 -37 44 -51 68 -50
85 -54 87 -190 90 -102 3 -124 1 -138 -13z" />
        <path d="M26896 31328 c-13 -20 -16 -186 -19 -1213 -3 -874 -7 -1205 -16
-1245 -42 -196 -68 -279 -101 -330 -6 -8 -14 -25 -20 -38 -17 -40 -105 -119
-162 -146 -108 -51 -205 -61 -326 -33 -92 21 -165 22 -182 2 -14 -17 -21 -159
-9 -192 16 -45 68 -56 269 -61 164 -3 195 -1 275 18 49 12 115 33 145 47 59
27 184 119 212 156 10 12 31 39 48 61 16 21 30 42 30 47 0 4 6 14 13 21 40 41
101 214 138 394 l23 109 4 1197 c2 1085 1 1198 -13 1212 -14 13 -41 16 -155
16 -134 0 -140 -1 -154 -22z" />
        <path d="M27998 31339 c-17 -9 -18 -96 -18 -1599 0 -1561 0 -1589 19 -1600 11
-5 80 -10 154 -10 117 0 136 2 150 18 16 17 17 142 17 1594 0 1513 -1 1576
-18 1591 -15 14 -42 17 -153 17 -74 0 -142 -5 -151 -11z" />
        <path d="M29101 31331 l-21 -21 0 -1574 0 -1575 22 -15 c17 -13 51 -16 148
-16 97 0 131 3 148 16 l22 15 0 688 c0 619 2 689 16 695 9 3 90 6 181 6 167 0
229 -9 308 -46 120 -56 176 -113 273 -280 12 -22 27 -46 32 -54 5 -8 21 -41
35 -72 14 -32 36 -83 50 -113 14 -31 25 -57 25 -60 0 -2 20 -48 45 -102 44
-94 60 -131 103 -226 11 -23 33 -72 51 -108 17 -36 31 -68 31 -72 0 -3 20 -48
44 -99 23 -51 49 -108 56 -126 21 -55 50 -63 216 -60 181 4 181 4 132 109 -19
41 -47 103 -63 139 -16 36 -39 85 -52 109 -12 24 -23 52 -23 62 0 10 -5 21
-11 25 -6 3 -24 36 -40 72 -17 36 -37 82 -46 101 -126 282 -280 596 -299 612
-8 6 -14 16 -14 21 0 18 -121 164 -155 187 -52 35 -45 61 20 76 122 27 274
111 379 210 172 162 264 411 253 685 -4 122 -30 247 -62 310 -7 14 -26 52 -42
85 -32 67 -203 249 -263 279 -19 9 -64 33 -100 51 -36 19 -72 35 -81 35 -9 0
-45 10 -80 22 -63 21 -78 22 -641 26 -572 3 -577 3 -597 -17z m994 -226 c22
-8 53 -15 69 -15 67 0 258 -113 321 -189 35 -43 85 -140 108 -209 18 -57 21
-90 21 -217 0 -130 -3 -160 -24 -224 -30 -98 -71 -174 -124 -233 -167 -186
-357 -247 -781 -247 -121 -1 -230 2 -242 5 l-23 6 0 662 c0 365 3 666 7 669 3
4 146 7 317 7 245 -1 320 -4 351 -15z" />
        <path d="M7220 28141 c-29 -8 -34 -38 -9 -54 22 -14 72 17 67 41 -4 19 -22 23
-58 13z" />
        <path d="M3659 27990 l-24 -20 24 -20 c32 -27 77 -26 92 2 9 17 9 23 0 26 -6
2 -18 10 -25 18 -20 19 -40 18 -67 -6z" />
        <path d="M7096 27935 c4 -8 12 -15 20 -15 19 0 18 16 -2 24 -22 9 -24 8 -18
-9z" />
        <path d="M3616 27907 c-13 -9 -20 -31 -23 -68 -4 -44 -3 -52 8 -41 16 14 49
16 49 2 0 -5 7 -10 15 -10 11 0 15 13 15 53 0 71 -23 94 -64 64z" />
        <path d="M3485 27260 c-4 -6 -5 -26 -4 -44 3 -27 -4 -42 -34 -75 -43 -48 -49
-81 -14 -81 24 0 26 3 61 83 26 60 18 161 -9 117z" />
        <path d="M3378 26945 c-3 -13 -3 -27 0 -30 9 -9 32 17 32 36 0 28 -27 23 -32
-6z" />
        <path d="M3850 26836 c0 -9 7 -16 16 -16 17 0 14 22 -4 28 -7 2 -12 -3 -12
-12z" />
        <path d="M5220 26716 c0 -32 12 -39 36 -22 15 12 16 16 5 30 -20 24 -41 20
-41 -8z" />
        <path d="M5036 26675 c-9 -9 -16 -21 -16 -26 0 -5 -11 -14 -25 -19 -32 -12
-41 -34 -27 -66 8 -16 20 -24 37 -24 32 0 34 -33 4 -58 -19 -15 -47 -67 -63
-115 -3 -9 -16 -22 -28 -27 -13 -5 -19 -9 -14 -9 5 -1 1 -10 -9 -21 -10 -11
-13 -20 -7 -20 7 0 12 -6 12 -13 0 -21 -127 -22 -177 -2 -32 13 -69 15 -184
12 -150 -4 -420 -38 -442 -55 -6 -5 -47 -17 -90 -26 -72 -14 -140 -50 -149
-77 -2 -5 -41 -24 -88 -43 -78 -32 -85 -37 -85 -63 0 -21 5 -28 20 -28 15 0
20 -7 20 -24 0 -20 -7 -27 -35 -34 -19 -5 -44 -17 -56 -28 -11 -10 -24 -19
-28 -19 -5 0 -21 -11 -38 -25 -16 -14 -37 -25 -47 -25 -9 0 -32 -11 -51 -25
-19 -14 -40 -25 -48 -25 -7 0 -28 -11 -46 -25 -18 -14 -39 -25 -47 -25 -8 0
-27 -10 -43 -23 -22 -18 -27 -28 -22 -45 11 -35 49 -37 179 -9 187 40 254 44
308 17 24 -12 72 -24 105 -27 54 -5 64 -3 83 16 22 22 56 28 66 11 3 -5 15
-10 25 -10 10 0 33 -12 50 -27 31 -25 32 -26 66 -9 33 15 37 15 74 -4 22 -11
46 -20 54 -20 8 0 21 -8 28 -18 7 -10 34 -28 59 -41 39 -18 69 -23 185 -27
175 -6 244 -13 244 -24 0 -5 -17 -16 -37 -25 -81 -35 -143 -68 -143 -77 0 -5
-13 -14 -29 -19 -33 -12 -65 -53 -57 -74 3 -8 -5 -22 -18 -32 -18 -15 -22 -26
-18 -51 2 -18 -1 -39 -8 -47 -15 -18 -17 -16 39 -40 49 -22 75 -24 236 -25
132 0 217 24 221 63 0 7 2 21 2 33 2 16 12 23 44 30 37 8 44 13 53 45 5 20 16
43 22 51 19 22 27 101 14 127 -7 11 -21 21 -31 21 -11 0 -29 9 -41 21 l-21 21
32 20 c27 16 45 18 107 14 41 -3 81 -2 89 1 22 8 57 91 50 119 -3 12 -15 25
-25 29 -35 11 -46 33 -27 53 21 24 20 51 -3 76 -10 12 -42 66 -70 121 -48 95
-63 145 -42 145 17 0 71 -35 71 -45 0 -6 21 -28 46 -50 40 -36 55 -56 102
-141 7 -13 20 -24 28 -24 8 0 19 -11 24 -25 5 -14 13 -25 17 -25 15 1 66 118
69 157 5 87 3 80 19 59 8 -11 17 -17 19 -15 12 11 17 187 7 224 -48 185 -59
219 -72 229 -8 6 -18 18 -21 26 -4 11 -22 16 -64 18 -72 3 -93 19 -78 60 14
35 -1 79 -28 88 -26 8 -45 -14 -54 -63 -9 -50 -44 -46 -72 10 -11 23 -36 57
-55 75 -32 31 -35 32 -51 17z m-111 -405 c3 -5 1 -10 -4 -10 -6 0 -11 5 -11
10 0 6 2 10 4 10 3 0 8 -4 11 -10z m50 -39 c3 -11 12 -22 20 -25 15 -5 20 -37
8 -49 -10 -10 -33 13 -33 33 0 13 -11 20 -40 25 -58 10 -51 32 12 34 18 1 29
-5 33 -18z m119 -87 c23 -22 9 -36 -27 -29 -42 9 -56 23 -37 35 22 14 47 12
64 -6z m-606 -66 c16 -16 15 -33 -4 -52 -21 -22 -31 -20 -50 9 -13 20 -14 28
-4 40 15 18 42 19 58 3z m1009 -30 c-3 -8 -6 -5 -6 6 -1 11 2 17 5 13 3 -3 4
-12 1 -19z m-1324 -158 c5 -18 8 -19 31 -8 38 17 60 -7 60 -69 1 -41 -2 -48
-20 -51 -11 -2 -28 6 -39 18 -10 11 -28 20 -41 20 -38 0 -54 11 -54 38 0 24
34 72 51 72 3 0 9 -9 12 -20z" />
        <path d="M4840 26305 c0 -9 5 -15 11 -13 6 2 11 8 11 13 0 5 -5 11 -11 13 -6
2 -11 -4 -11 -13z" />
        <path d="M10321 25586 c-10 -11 -9 -21 4 -46 17 -33 32 -35 49 -8 7 11 6 24
-2 42 -13 29 -33 33 -51 12z" />
        <path d="M6918 25545 c-3 -4 -3 -15 -1 -26 7 -24 28 -20 28 6 0 18 -16 30 -27
20z" />
        <path d="M6895 25430 c-3 -5 -1 -10 4 -10 6 0 11 5 11 10 0 6 -2 10 -4 10 -3
0 -8 -4 -11 -10z" />
        <path d="M10146 25324 c-12 -31 -5 -49 26 -71 18 -12 34 -21 36 -18 2 2 -2 21
-9 42 -21 62 -41 79 -53 47z" />
        <path d="M8662 25289 c2 -6 8 -10 13 -10 5 0 11 4 13 10 2 6 -4 11 -13 11 -9
0 -15 -5 -13 -11z" />
        <path d="M10348 25264 c-3 -3 -4 -14 -1 -24 4 -16 30 -21 62 -11 2 0 -2 8 -9
16 -7 8 -16 12 -21 9 -5 -3 -9 0 -9 5 0 12 -13 15 -22 5z" />
        <path d="M9935 25171 c-3 -5 -1 -12 5 -16 5 -3 10 1 10 9 0 18 -6 21 -15 7z" />
        <path d="M9790 25121 c0 -13 29 -35 37 -28 7 8 -15 37 -28 37 -5 0 -9 -4 -9
-9z" />
        <path d="M7130 25111 c0 -11 39 -25 47 -18 3 3 2 10 -2 16 -8 13 -45 15 -45 2z" />
        <path d="M10207 25063 c-9 -9 -9 -53 1 -53 4 0 17 -3 30 -6 18 -5 22 -2 22 18
0 36 -33 62 -53 41z" />
        <path d="M9935 25039 c-5 -13 -2 -25 6 -30 19 -11 29 -2 29 27 0 30 -26 32
-35 3z" />
        <path d="M7360 24985 c-21 -26 -5 -45 32 -39 41 8 52 18 45 38 -8 20 -60 21
-77 1z" />
        <path d="M7146 24974 c-19 -19 -19 -15 -1 -50 8 -16 15 -48 15 -70 0 -48 14
-58 66 -48 40 7 50 19 34 39 -7 9 -9 26 -5 45 7 33 -15 70 -42 70 -7 0 -16 7
-19 15 -8 19 -28 19 -48 -1z" />
        <path d="M7324 24884 c3 -9 6 -21 6 -27 0 -8 3 -8 10 -1 12 12 3 44 -12 44 -6
0 -7 -7 -4 -16z" />
        <path d="M7032 24783 c4 -22 38 -30 38 -10 0 8 -7 18 -16 21 -23 9 -26 8 -22
-11z" />
        <path d="M7312 24769 c1 -13 8 -23 13 -21 15 3 12 35 -3 40 -9 3 -13 -3 -10
-19z" />
        <path d="M9953 24713 c-18 -7 -16 -30 3 -37 23 -9 24 -8 24 19 0 25 -4 28 -27
18z" />
        <path d="M7110 24666 c-5 -13 -18 -27 -29 -31 -29 -9 -26 -30 8 -54 26 -19 30
-19 42 -5 11 14 13 14 22 -1 6 -11 5 -21 -2 -28 -15 -15 -81 -37 -111 -37 -38
0 -68 -26 -76 -65 -5 -26 -13 -37 -31 -41 -16 -4 -28 -2 -34 7 -16 27 -30 -4
-17 -38 11 -28 9 -35 -16 -71 -23 -33 -26 -46 -20 -77 4 -25 1 -48 -11 -75
-17 -38 -17 -40 4 -74 15 -24 20 -43 15 -61 -10 -42 15 -115 44 -126 20 -8 22
-12 12 -24 -6 -8 -9 -18 -6 -24 10 -15 -15 -63 -52 -100 -27 -27 -42 -34 -73
-34 -29 0 -40 -4 -44 -19 -4 -10 -10 -16 -15 -13 -11 7 -17 -14 -25 -87 -3
-31 -14 -74 -24 -95 -10 -21 -22 -53 -26 -71 -3 -17 -20 -45 -36 -61 -16 -16
-29 -38 -29 -48 0 -22 -33 -45 -55 -37 -8 3 -15 2 -15 -3 0 -25 -57 -71 -97
-78 -28 -4 -43 -12 -43 -22 0 -9 -28 -27 -70 -46 -38 -17 -70 -37 -70 -44 0
-8 -7 -16 -15 -20 -9 -3 -22 -18 -31 -34 -18 -35 -24 -36 -61 -6 -15 12 -45
28 -66 36 -21 7 -65 30 -97 52 -33 21 -66 39 -74 39 -8 0 -21 9 -28 19 -8 11
-36 31 -62 45 -45 24 -59 26 -177 26 -121 0 -129 -1 -157 -25 -17 -14 -37 -25
-46 -25 -9 0 -20 -8 -23 -17 -4 -10 -17 -28 -30 -40 -13 -12 -23 -30 -23 -40
0 -20 61 -83 80 -83 7 0 26 -10 43 -22 94 -68 108 -71 272 -74 203 -4 334 -14
364 -31 14 -7 37 -13 50 -13 13 0 38 -8 55 -19 17 -10 48 -24 69 -31 21 -7 41
-18 44 -26 3 -8 10 -14 16 -14 6 0 20 -9 31 -19 18 -17 49 -27 93 -30 24 -2
122 -95 143 -135 16 -32 33 -39 134 -52 35 -4 50 -11 53 -24 6 -23 64 -33 142
-24 66 7 70 4 75 -57 3 -31 11 -49 29 -64 13 -11 26 -27 29 -35 5 -15 19 22
32 83 7 32 31 35 48 7 10 -15 24 -20 55 -20 23 0 45 5 48 11 4 5 32 22 62 36
40 19 59 36 71 60 26 54 74 40 74 -21 0 -66 51 -57 64 11 9 46 45 71 79 53 18
-10 34 -10 67 -2 90 23 149 23 179 1 20 -14 29 -29 29 -47 0 -15 4 -34 9 -41
13 -20 -22 -69 -52 -73 -19 -3 -22 -9 -22 -47 0 -38 -4 -47 -30 -63 -21 -13
-42 -18 -67 -14 -33 4 -41 0 -73 -35 -35 -40 -37 -56 -8 -90 12 -15 11 -20
-10 -43 -13 -14 -29 -26 -35 -26 -6 0 -25 -17 -41 -37 -30 -37 -31 -38 -90
-35 -50 3 -61 7 -66 24 -4 10 -20 35 -37 54 -43 49 -88 48 -122 -3 -14 -20
-23 -40 -21 -44 3 -3 25 -13 50 -20 51 -15 61 -42 23 -60 -13 -5 -34 -16 -48
-24 -33 -19 -104 -19 -120 0 -22 27 -135 16 -143 -14 -4 -17 -66 -41 -117 -47
-14 -1 -74 -8 -135 -14 -60 -7 -132 -15 -160 -19 -54 -7 -139 -46 -130 -61 3
-4 1 -19 -4 -33 -7 -18 -20 -26 -48 -32 -21 -3 -45 -13 -53 -20 -29 -25 -56
-26 -106 -3 -41 19 -64 22 -147 21 -54 -1 -104 -6 -110 -11 -18 -14 -110 -25
-234 -26 -100 -2 -116 -4 -143 -25 -22 -16 -49 -24 -93 -26 -154 -10 -230 -18
-337 -36 -63 -10 -137 -19 -164 -19 -33 0 -53 -5 -61 -16 -8 -12 -43 -20 -126
-29 -63 -7 -131 -20 -151 -29 -21 -9 -46 -16 -57 -16 -19 0 -66 54 -66 75 0 5
-13 12 -30 15 -18 3 -31 12 -33 23 -2 11 -21 36 -43 57 -32 30 -41 49 -51 96
-6 33 -17 68 -25 79 -19 28 -17 139 2 159 9 9 19 39 22 68 3 29 14 67 24 84
16 26 45 120 65 209 2 11 7 61 10 110 5 65 12 96 24 110 10 11 21 37 24 59 4
21 16 55 27 75 10 20 19 47 19 61 0 14 6 36 14 50 38 69 65 128 71 157 3 17
17 39 31 47 13 9 24 25 24 35 0 10 8 29 19 42 10 13 22 40 26 59 4 19 23 54
41 77 23 28 38 60 46 98 6 31 17 59 24 62 7 3 25 26 41 51 24 42 27 59 31 164
5 145 4 150 -40 136 -39 -13 -85 -36 -107 -54 -55 -45 -81 -75 -81 -92 0 -19
-58 -72 -79 -72 -6 0 -15 -18 -22 -39 -8 -29 -25 -49 -58 -72 -66 -48 -81 -66
-81 -95 0 -24 -22 -59 -69 -109 -10 -11 -21 -35 -25 -53 -3 -19 -19 -50 -35
-70 -15 -21 -34 -62 -41 -92 -7 -30 -21 -62 -32 -72 -10 -9 -30 -40 -44 -68
-15 -29 -35 -55 -46 -58 -21 -5 -22 -49 0 -45 6 2 12 -6 12 -17 0 -11 -6 -20
-14 -20 -15 0 -28 -24 -19 -34 4 -3 15 -6 25 -6 14 0 18 -8 18 -35 0 -19 -4
-36 -10 -36 -5 -1 -15 -2 -20 -3 -25 -3 -50 -71 -66 -173 -8 -59 -22 -122 -30
-141 -8 -19 -14 -43 -14 -54 0 -11 -11 -33 -25 -50 -14 -16 -25 -41 -25 -55 0
-14 -10 -41 -21 -60 -16 -26 -22 -55 -25 -116 -2 -45 -6 -122 -8 -172 -5 -95
3 -120 35 -110 28 9 59 -4 59 -24 0 -9 8 -33 19 -53 10 -20 21 -56 25 -79 8
-52 29 -119 37 -119 3 0 12 -18 19 -40 7 -22 17 -40 21 -40 5 0 15 -13 24 -30
9 -16 20 -30 26 -30 6 0 40 -30 75 -66 62 -63 66 -65 84 -49 10 9 21 38 25 65
8 57 21 65 61 39 16 -10 39 -19 51 -19 12 0 42 -9 68 -20 26 -11 68 -20 94
-20 71 0 154 -49 163 -97 2 -11 17 -20 43 -25 21 -5 46 -14 54 -22 9 -7 24
-16 34 -19 9 -4 17 -13 17 -22 0 -8 9 -15 21 -15 11 0 18 4 14 9 -9 15 32 32
59 25 14 -3 27 -12 30 -20 3 -8 17 -19 31 -24 14 -5 25 -16 25 -23 0 -22 57
-57 93 -57 19 0 46 -9 60 -20 14 -12 40 -26 57 -31 17 -6 35 -20 41 -30 14
-28 27 -23 37 14 15 56 -11 86 -75 87 -19 0 -60 38 -81 77 -6 9 -25 16 -50 18
-47 2 -89 26 -102 58 -14 34 -29 187 -23 234 5 38 8 42 33 41 19 -1 30 -7 33
-19 8 -32 27 -21 27 15 0 64 87 101 156 66 21 -11 44 -20 52 -20 7 0 27 22 43
49 27 43 37 51 72 57 23 3 51 13 63 20 11 8 45 21 74 28 46 12 59 12 96 -1 24
-8 46 -19 50 -24 10 -17 72 -10 86 9 19 27 98 82 117 82 9 0 32 -8 51 -19 29
-15 49 -18 106 -14 75 6 104 -4 170 -52 16 -13 48 -28 71 -35 36 -11 45 -10
89 11 40 19 68 23 154 25 58 1 139 8 180 17 97 19 142 6 207 -61 42 -44 93
-130 93 -158 0 -6 7 -17 15 -24 19 -15 50 3 102 61 19 21 41 39 48 39 8 0 21
8 31 17 10 11 38 18 75 21 53 4 61 2 89 -24 16 -16 30 -33 30 -37 0 -17 63
-152 84 -180 29 -39 56 -32 81 21 20 42 21 43 65 40 l45 -3 -3 -50 c-4 -68
-11 -86 -29 -83 -9 2 -18 -3 -21 -11 -3 -10 1 -12 17 -8 14 3 21 1 21 -9 0 -8
-6 -14 -12 -13 -25 4 -68 -13 -68 -27 0 -8 -5 -14 -11 -14 -6 0 -8 8 -4 19 3
12 0 21 -10 25 -10 3 -18 -1 -21 -12 -16 -48 -58 -122 -73 -127 -9 -3 -36 -23
-59 -46 -51 -48 -96 -69 -154 -69 -24 0 -52 -7 -62 -15 -11 -8 -29 -15 -40
-15 -32 1 -74 44 -81 82 -9 49 -19 61 -43 54 -24 -8 -41 -54 -51 -130 l-6 -51
-62 -29 c-35 -16 -63 -35 -63 -42 0 -7 -15 -20 -32 -30 -48 -25 -259 -32 -311
-11 -20 9 -37 21 -37 28 0 7 -7 20 -16 30 -8 9 -21 58 -29 110 -15 101 -37
174 -51 174 -12 0 -33 -106 -36 -180 -1 -48 -6 -64 -25 -81 -13 -12 -23 -28
-23 -36 0 -8 -12 -25 -26 -39 -22 -21 -37 -24 -117 -28 -51 -2 -130 -3 -177
-2 -73 1 -88 4 -102 22 -10 12 -18 29 -18 38 0 10 -13 30 -30 46 -16 16 -30
34 -30 41 0 23 -21 26 -43 7 -42 -37 -78 -54 -135 -64 -83 -14 -87 -16 -72
-34 7 -8 19 -15 27 -15 7 0 27 -9 42 -21 23 -17 47 -22 121 -25 69 -3 99 -9
119 -23 14 -10 35 -20 46 -22 12 -3 21 -14 23 -27 2 -12 10 -22 20 -22 8 0 26
-10 38 -21 44 -41 372 -91 453 -69 39 10 432 -3 452 -16 5 -3 9 -12 9 -19 0
-23 58 -49 76 -35 17 15 27 -5 22 -42 -2 -18 -12 -25 -45 -32 -43 -10 -52 -20
-85 -103 -13 -33 -45 -49 -78 -38 -20 6 -43 -11 -71 -55 -12 -18 -26 -25 -50
-26 l-34 -1 -1 -54 c-2 -135 -6 -152 -46 -190 -42 -40 -49 -76 -20 -102 29
-27 98 3 118 51 1 2 29 -12 63 -30 69 -37 76 -58 37 -101 -30 -32 -41 -79 -26
-106 9 -17 20 -21 60 -21 48 0 90 -23 90 -49 0 -5 18 -11 40 -15 37 -6 40 -9
46 -46 4 -22 10 -40 15 -40 4 0 22 -12 40 -27 19 -17 44 -27 63 -28 29 0 31
-2 28 -34 -3 -27 3 -40 31 -70 33 -34 50 -68 51 -101 1 -8 12 -17 26 -18 14
-2 31 -9 38 -14 14 -12 104 -3 136 14 12 6 28 19 36 30 16 19 22 20 90 15 29
-2 35 1 35 18 0 17 7 20 40 20 32 0 39 -3 37 -17 -2 -12 12 -21 48 -33 28 -9
54 -14 57 -11 4 3 17 -4 30 -16 l23 -21 -22 -11 c-19 -10 -22 -18 -19 -58 1
-31 -3 -55 -13 -70 -23 -32 -20 -43 19 -69 45 -31 47 -66 6 -93 -21 -14 -31
-31 -35 -60 -4 -22 -15 -56 -25 -75 -10 -20 -28 -58 -41 -86 -21 -44 -55 -92
-104 -145 -7 -8 -27 -26 -45 -40 -24 -19 -30 -31 -26 -47 7 -28 -10 -73 -28
-73 -28 0 -70 -57 -72 -100 -1 -22 -5 -44 -9 -48 -4 -4 -35 -11 -69 -17 -61
-10 -62 -11 -67 -45 -4 -30 -12 -38 -52 -58 -26 -13 -67 -26 -90 -29 -24 -3
-54 -14 -68 -24 -19 -13 -30 -15 -44 -7 -41 23 -103 -25 -75 -58 14 -17 11
-21 -16 -24 -36 -4 -45 0 -45 20 0 25 -38 27 -47 3 -17 -46 -41 -57 -131 -64
-48 -3 -116 -12 -151 -19 -48 -10 -72 -10 -102 -1 -40 12 -132 3 -198 -20 -17
-6 -40 -9 -50 -6 -10 2 -43 0 -72 -4 -33 -6 -89 -5 -144 1 -181 20 -272 31
-359 45 -86 13 -92 15 -131 57 -35 37 -125 101 -184 132 -10 5 -27 22 -37 38
-10 15 -32 33 -49 39 -50 18 -58 24 -74 57 -9 18 -23 31 -31 30 -8 0 -28 4
-44 11 -16 6 -35 10 -43 7 -14 -6 -18 -36 -5 -36 17 0 148 -103 155 -122 9
-25 104 -116 130 -124 10 -3 16 -12 13 -19 -6 -18 47 -75 70 -75 25 0 84 -48
78 -64 -6 -15 57 -52 121 -70 28 -8 45 -20 55 -41 30 -58 64 -95 99 -106 60
-20 126 -58 157 -90 16 -17 39 -35 52 -40 31 -12 33 -93 2 -109 -24 -13 -43
-56 -33 -73 4 -7 6 -19 5 -28 -4 -26 74 -33 603 -55 77 -4 145 -10 151 -15 6
-5 12 -21 12 -34 0 -51 17 -58 117 -50 132 11 290 9 322 -4 22 -9 37 -9 68 2
31 10 84 11 235 6 346 -13 377 -12 400 11 11 11 20 33 20 49 0 34 13 41 84 41
29 0 57 5 64 12 7 7 12 31 12 55 0 37 4 45 24 53 31 11 40 26 42 73 2 46 20
70 46 61 30 -9 48 14 48 60 0 49 13 66 52 66 39 0 48 25 48 137 l0 98 42 39
c23 22 58 45 77 52 l36 12 3 116 3 115 42 12 c23 7 44 14 46 16 3 2 6 25 7 50
0 28 6 49 14 51 29 10 50 43 50 81 0 44 12 58 55 63 24 2 30 9 36 35 8 42 25
62 47 57 39 -10 47 10 52 133 l5 117 40 8 c44 10 115 71 115 99 0 10 4 21 10
24 5 3 16 27 23 53 14 46 15 47 58 50 56 4 69 16 69 62 0 23 14 64 38 111 34
66 41 75 77 85 39 11 40 12 43 62 4 62 19 74 90 71 56 -3 72 4 72 31 0 23 26
39 51 33 11 -3 22 4 31 20 21 41 129 157 145 157 12 0 14 8 9 33 -9 46 11 96
41 108 26 9 27 33 2 35 -8 1 -25 5 -37 9 -34 11 -28 35 51 215 11 25 27 50 37
57 10 7 30 52 44 100 15 48 36 105 47 125 10 20 19 46 19 57 0 13 14 30 35 43
19 13 35 31 35 41 0 10 9 43 20 74 11 32 20 70 20 86 0 36 15 65 51 99 18 17
29 37 29 53 0 15 11 40 25 57 19 23 25 41 25 79 0 30 8 65 20 89 11 22 20 46
20 55 0 9 9 29 21 44 15 21 22 49 26 112 4 46 8 78 10 72 10 -28 23 -10 29 39
5 34 15 59 29 72 19 18 23 36 30 136 4 67 13 127 22 143 7 15 15 49 17 75 2
26 4 55 5 64 0 10 6 17 12 15 18 -3 25 39 24 151 0 88 -3 105 -17 113 -26 14
-22 32 12 57 38 28 38 40 -1 88 -27 34 -30 44 -24 81 7 50 -11 98 -27 70 -5
-10 -13 -17 -18 -17 -17 0 -11 31 11 61 16 23 20 38 15 67 -4 20 -10 64 -14
97 -4 33 -14 71 -21 84 -7 13 -14 60 -15 110 -1 47 -5 91 -9 98 -4 6 -10 33
-13 60 -4 29 -17 64 -34 89 -26 37 -28 46 -23 103 5 54 3 66 -17 93 -27 36
-29 65 -10 130 13 44 13 51 -8 93 -17 36 -27 45 -47 45 -14 0 -34 9 -45 20
-11 11 -26 20 -34 20 -11 0 -10 8 6 41 18 38 21 40 37 25 19 -17 56 -21 65 -7
3 4 2 39 -3 75 -6 54 -13 73 -35 94 -15 15 -36 42 -47 60 -25 42 -49 42 -49 0
0 -23 8 -38 27 -54 23 -18 28 -29 27 -63 -2 -48 -9 -60 -26 -43 -7 7 -23 12
-36 12 -18 0 -28 10 -43 46 -17 38 -47 64 -75 64 -2 0 -2 -29 2 -64 7 -64 0
-82 -25 -66 -9 5 -10 13 -5 21 11 19 15 131 5 148 -12 19 -51 -4 -51 -29 0
-29 -13 -30 -44 -3 -23 20 -26 27 -15 34 8 5 23 9 35 9 26 0 43 36 51 104 4
28 12 61 20 75 7 15 13 40 13 58 0 27 6 35 35 49 20 9 33 19 30 23 -4 3 -27
22 -53 41 l-47 36 -52 -26 c-38 -19 -52 -31 -55 -50 -2 -19 -13 -28 -48 -40
-36 -12 -46 -21 -48 -42 -2 -14 -12 -34 -23 -44 -10 -9 -19 -23 -19 -30 0 -30
35 -85 62 -96 30 -14 31 -21 22 -80 -5 -28 -12 -38 -31 -43 -13 -3 -27 -13
-30 -23 -10 -25 -23 -31 -60 -25 -20 3 -39 0 -49 -8 -23 -19 -54 -85 -54 -115
0 -33 -85 -118 -108 -109 -28 11 -39 -12 -32 -67 8 -63 3 -89 -16 -81 -16 6
-53 -34 -54 -58 0 -9 -7 -22 -15 -29 -8 -7 -15 -29 -15 -50 0 -29 -6 -41 -25
-54 -40 -27 -66 -75 -53 -100 9 -16 6 -23 -14 -40 -25 -21 -25 -24 -27 -170
-1 -82 -4 -153 -7 -158 -3 -4 -20 -14 -37 -22 -27 -11 -34 -21 -44 -67 -17
-74 -16 -98 5 -106 28 -11 32 -24 30 -100 -2 -63 1 -76 20 -96 16 -16 22 -36
22 -66 0 -38 -2 -42 -20 -36 -17 6 -20 2 -20 -28 0 -26 -5 -36 -20 -40 -27 -7
-25 -27 3 -29 12 0 29 -2 37 -2 17 -1 19 -21 25 -366 4 -228 -8 -420 -27 -431
-6 -4 -12 -28 -15 -55 -7 -75 -12 -94 -28 -94 -18 0 -28 -31 -19 -64 3 -15 -4
-58 -19 -108 -14 -46 -28 -99 -31 -119 -4 -21 -13 -43 -21 -49 -9 -8 -13 -21
-9 -32 4 -14 -4 -29 -29 -52 -22 -21 -38 -47 -42 -70 -4 -20 -11 -36 -16 -36
-5 0 -15 -12 -22 -27 -12 -25 -19 -52 -41 -153 -7 -32 -56 -60 -106 -60 -21 0
-45 -7 -54 -15 -22 -23 -45 -18 -57 11 -12 34 -13 284 0 389 5 44 14 118 20
165 5 47 12 119 15 160 6 95 40 206 66 220 11 6 20 19 20 29 0 10 7 24 15 31
25 21 66 102 95 190 24 72 29 106 33 225 7 213 -7 438 -32 507 -12 32 -21 71
-21 88 0 72 -66 183 -115 192 -13 2 -22 16 -30 45 -5 24 -22 57 -37 74 -16 17
-28 37 -28 44 0 8 -4 17 -10 20 -5 3 -10 13 -10 21 0 9 -11 30 -24 47 -13 18
-26 44 -29 58 -4 14 -22 45 -40 70 -19 24 -38 60 -42 79 -8 35 -41 87 -81 127
-15 15 -23 40 -28 84 -8 68 -29 119 -49 119 -14 0 -57 44 -57 59 0 16 -26 56
-58 90 -18 18 -32 39 -32 46 0 24 -33 78 -51 82 -11 3 -19 12 -19 19 0 8 -7
17 -15 20 -8 3 -20 24 -26 47 -6 22 -23 53 -38 68 -27 26 -37 47 -57 113 -7
23 -19 33 -51 43 -34 12 -46 23 -59 51 -9 20 -23 52 -31 70 -8 17 -21 32 -29
32 -8 0 -17 7 -20 15 -3 8 -14 17 -25 20 -10 4 -19 13 -19 21 0 22 -109 155
-159 195 -62 49 -104 90 -123 120 -10 15 -31 33 -48 40 -16 8 -30 17 -30 21 0
19 -72 86 -86 81 -10 -4 -17 2 -21 16 -3 11 -9 21 -14 21 -5 0 -9 17 -9 38 0
46 -14 62 -55 62 -24 0 -35 6 -43 25 -15 33 -49 33 -62 1z m2790 -637 c0 -5
-4 -9 -10 -9 -5 0 -10 7 -10 16 0 8 5 12 10 9 6 -3 10 -10 10 -16z m-2681 -76
c7 -13 23 -18 65 -18 44 -1 61 -6 81 -25 14 -13 25 -28 25 -33 0 -5 11 -22 25
-39 14 -16 25 -41 25 -55 0 -17 13 -39 40 -64 37 -35 39 -41 42 -102 2 -62 1
-65 -36 -101 -20 -21 -41 -49 -46 -62 -7 -17 -17 -24 -36 -24 -17 0 -28 -6
-31 -19 -3 -11 -15 -21 -26 -24 -12 -3 -116 -4 -231 -3 -243 2 -236 -1 -236
103 0 49 5 70 20 91 33 45 -1 88 -49 63 -15 -8 -20 -7 -25 5 -8 21 2 36 23 32
28 -5 51 21 51 57 0 23 7 39 23 52 13 10 26 25 29 34 4 10 24 18 54 23 36 4
54 14 76 38 15 17 28 35 28 40 0 4 6 8 14 8 8 0 24 9 37 20 30 24 45 25 58 3z
m2689 -30 c31 -48 26 -67 -19 -71 -32 -3 -39 1 -57 32 -18 31 -19 36 -6 55 23
32 55 26 82 -16z m130 -415 c21 -21 13 -37 -29 -58 -23 -12 -43 -20 -45 -17
-5 5 21 68 32 80 11 11 28 9 42 -5z m-128 -13 c0 -8 -4 -15 -9 -15 -13 0 -22
16 -14 24 11 11 23 6 23 -9z m200 -194 c0 -11 -4 -23 -10 -26 -6 -4 -10 5 -10
19 0 14 5 26 10 26 6 0 10 -9 10 -19z m-774 -350 c7 -18 8 -35 2 -45 -11 -20
-28 -21 -28 -2 0 8 -9 18 -20 21 -19 6 -27 35 -13 48 17 18 49 6 59 -22z
m-2229 -2557 c-3 -3 -12 -4 -19 -1 -8 3 -5 6 6 6 11 1 17 -2 13 -5z m-63 -379
c-4 -8 -8 -15 -10 -15 -2 0 -4 7 -4 15 0 8 4 15 10 15 5 0 7 -7 4 -15z" />
        <path d="M9910 24285 c-10 -12 -7 -14 19 -12 17 1 31 8 31 15 0 17 -35 15 -50
-3z" />
        <path d="M9972 24238 c-15 -18 -28 -93 -14 -84 17 10 49 70 44 84 -5 15 -17
15 -30 0z" />
        <path d="M10180 24085 c-7 -9 -10 -18 -7 -21 10 -11 37 5 37 21 0 19 -14 19
-30 0z" />
        <path d="M22945 24032 c-121 -7 -240 -10 -265 -7 -49 6 -235 -10 -290 -25 -19
-5 -52 -12 -73 -15 -31 -5 -37 -10 -32 -24 15 -50 -95 -74 -286 -64 -106 6
-107 6 -133 -21 -30 -30 -43 -32 -70 -11 -26 20 -189 20 -248 1 -43 -14 -191
-42 -303 -57 -123 -16 -171 -26 -209 -42 -21 -10 -52 -17 -68 -17 -16 0 -41
-6 -56 -14 -15 -8 -49 -17 -75 -21 -27 -4 -60 -18 -75 -30 -15 -12 -43 -25
-62 -28 -19 -3 -62 -12 -94 -20 -33 -8 -65 -13 -73 -10 -7 3 -29 -7 -49 -22
-33 -25 -43 -27 -170 -32 -128 -6 -136 -7 -151 -30 -10 -15 -25 -23 -43 -23
-15 0 -38 -8 -51 -19 -13 -10 -40 -21 -60 -25 -20 -3 -44 -15 -54 -26 -10 -11
-27 -20 -37 -20 -10 0 -29 -10 -41 -23 -12 -13 -30 -26 -40 -30 -9 -4 -22 -19
-28 -34 -15 -40 -39 -63 -66 -63 -12 0 -23 -4 -23 -10 0 -5 10 -9 21 -7 12 1
24 -4 26 -10 3 -8 -5 -13 -20 -13 -14 0 -38 -7 -54 -15 -15 -8 -45 -17 -66
-20 -31 -5 -36 -9 -27 -20 6 -8 28 -15 48 -17 34 -3 38 -7 55 -53 22 -59 20
-57 41 -49 9 3 13 11 9 18 -3 6 4 1 16 -11 35 -36 55 -30 95 30 30 44 31 50
11 67 -8 7 -15 16 -15 21 0 13 36 20 64 13 20 -5 25 -11 21 -24 -5 -16 4 -19
88 -25 103 -8 129 -3 169 30 18 15 46 24 92 29 89 9 97 13 90 43 -5 17 0 31
17 49 29 30 44 30 65 -1 21 -32 10 -64 -30 -80 -39 -17 -62 -42 -72 -79 -6
-24 -8 -26 -16 -12 -11 20 -28 21 -28 2 0 -26 -30 -46 -69 -46 -40 0 -71 -23
-71 -53 0 -15 14 -17 105 -17 87 0 105 3 105 15 0 10 10 15 30 15 19 0 30 -5
30 -14 0 -28 69 -35 124 -12 39 16 40 44 4 139 -12 31 3 57 32 57 20 0 80 -52
80 -69 0 -6 -13 -26 -30 -44 -30 -34 -40 -77 -19 -77 8 0 9 -15 4 -46 -6 -42
-4 -49 21 -75 15 -16 38 -29 50 -29 12 0 36 -11 52 -25 37 -31 93 -33 128 -6
13 10 45 22 71 26 27 4 55 11 63 15 9 5 23 3 35 -6 30 -22 91 -18 115 9 14 14
34 22 57 23 41 1 63 24 63 65 0 22 6 28 31 33 17 3 46 6 64 6 32 0 32 0 34
-53 2 -57 -24 -107 -55 -107 -19 0 -74 -41 -74 -55 0 -6 -14 -24 -31 -41 -29
-28 -31 -28 -41 -10 -10 18 -13 15 -34 -25 -30 -57 -32 -134 -5 -149 11 -5 33
-10 48 -10 31 0 53 -16 53 -37 0 -9 -15 -13 -45 -13 -26 0 -60 -8 -78 -17 -18
-9 -36 -16 -41 -15 -15 5 -36 -20 -36 -44 0 -13 1 -24 3 -25 1 0 34 -3 72 -5
124 -8 134 -11 140 -47 3 -18 2 -45 -3 -62 -9 -30 -9 -30 -83 -31 -41 0 -80
-3 -86 -7 -15 -9 -19 -1 -28 52 -4 24 -17 53 -29 65 -19 19 -31 21 -156 21
l-134 0 -8 -43 c-10 -58 -39 -106 -66 -110 -20 -3 -22 -9 -22 -64 l0 -61 41 6
c22 3 54 1 71 -5 l30 -11 -6 -96 c-10 -177 -13 -189 -57 -217 -21 -13 -46 -24
-54 -24 -37 0 -111 -51 -144 -100 -19 -27 -40 -50 -48 -50 -22 0 -63 -47 -63
-73 0 -13 -11 -38 -24 -56 -26 -35 -25 -49 7 -92 10 -15 19 -45 20 -70 2 -41
4 -44 39 -54 59 -16 70 -32 59 -90 -6 -31 -18 -56 -31 -67 l-22 -18 30 -28
c16 -15 32 -38 36 -50 5 -15 18 -25 37 -29 38 -7 37 -29 -2 -37 -95 -19 -169
-1 -169 41 0 26 -115 7 -146 -24 -15 -15 -31 -22 -42 -19 -10 4 -40 -1 -68 -9
-27 -8 -60 -15 -72 -15 -13 0 -35 -9 -48 -19 -20 -16 -37 -19 -87 -16 -107 7
-158 16 -164 31 -9 24 4 28 75 26 37 -1 74 2 82 7 22 15 27 143 6 160 -10 9
-16 29 -16 56 0 53 -15 66 -79 69 -28 2 -57 8 -64 15 -9 7 -17 41 -21 89 -4
43 -12 89 -19 102 -11 22 -18 24 -94 24 -70 1 -85 4 -105 24 -14 12 -30 22
-36 22 -16 0 -15 20 3 40 8 8 28 42 45 74 30 55 30 59 13 72 -23 17 -24 17
-91 -2 -58 -17 -105 -54 -97 -77 9 -23 -57 -57 -111 -57 -87 0 -99 -24 -96
-180 2 -106 5 -118 29 -153 14 -21 32 -36 39 -33 16 6 28 -9 44 -56 12 -32 11
-40 -4 -62 -10 -17 -26 -26 -42 -26 -15 0 -27 -7 -30 -17 -3 -10 -10 -26 -15
-35 -14 -27 -11 -53 11 -81 11 -14 20 -30 20 -35 0 -6 10 -12 22 -14 20 -3 46
-40 62 -90 3 -10 14 -18 24 -18 32 0 62 -42 62 -86 0 -64 -10 -84 -41 -91 -20
-4 -41 -21 -64 -53 -19 -26 -42 -50 -49 -53 -9 -4 -17 -28 -21 -62 -7 -49 -11
-58 -39 -72 -58 -31 -156 -16 -156 23 0 19 -45 18 -64 -2 -9 -8 -16 -23 -16
-33 0 -9 -15 -31 -33 -49 -26 -25 -41 -32 -74 -32 -22 0 -46 -6 -52 -14 -10
-12 -72 -25 -147 -30 -29 -2 -90 -42 -107 -72 -4 -8 -16 -14 -27 -14 -10 0
-32 -11 -48 -25 -17 -14 -39 -25 -50 -25 -12 0 -25 -6 -29 -14 -15 -26 -50
-35 -158 -41 -124 -8 -157 -22 -153 -64 3 -23 0 -26 -25 -24 -31 2 -49 -25
-61 -89 -8 -43 -33 -51 -54 -18 -7 11 -21 20 -31 20 -10 0 -30 9 -45 21 -18
14 -46 22 -89 25 -65 5 -96 27 -97 67 0 36 -19 58 -44 51 -22 -5 -25 0 -48 73
-19 64 -27 78 -44 78 -35 0 -53 24 -66 87 -10 48 -15 58 -30 55 -23 -6 -63 46
-72 94 -3 21 -14 51 -22 69 -12 23 -18 81 -24 213 -5 100 -9 183 -9 185 -1 1
-10 2 -21 2 -30 0 -38 -29 -53 -177 -13 -123 -15 -134 -41 -158 -15 -14 -31
-25 -35 -25 -14 0 -20 -25 -31 -119 -8 -68 -6 -106 5 -172 8 -46 15 -85 15
-85 0 -1 8 -4 18 -6 36 -10 51 -113 60 -409 8 -256 10 -279 29 -303 12 -15 24
-49 28 -82 3 -30 12 -70 20 -87 7 -18 16 -77 20 -132 4 -55 16 -127 27 -160
14 -44 21 -108 28 -235 8 -171 12 -201 32 -268 8 -25 14 -31 28 -27 20 6 22 2
40 -80 26 -118 29 -126 54 -119 25 6 23 10 45 -96 5 -25 14 -58 20 -74 9 -23
14 -26 26 -16 20 17 20 16 51 -190 16 -112 31 -181 41 -192 8 -9 18 -43 22
-75 6 -51 12 -64 47 -99 35 -35 42 -50 54 -113 12 -65 18 -76 52 -104 21 -17
38 -37 38 -46 0 -9 7 -29 16 -46 9 -16 25 -52 35 -80 33 -86 40 -95 63 -89 19
4 24 -2 40 -48 22 -63 30 -72 58 -73 17 0 26 -12 42 -60 17 -46 27 -61 46 -65
27 -6 70 -62 70 -91 0 -10 6 -22 13 -26 7 -4 23 -25 36 -46 12 -20 32 -39 44
-41 108 -22 205 -31 330 -30 164 2 179 6 239 66 25 25 43 35 56 31 22 -5 30
20 52 173 12 82 27 121 37 97 2 -7 8 -13 13 -13 8 0 60 93 60 109 0 21 55 131
66 131 6 0 23 17 37 38 20 29 27 55 33 120 7 83 7 84 44 107 32 20 40 32 49
75 10 48 42 106 68 123 6 4 15 22 18 40 4 17 16 50 27 72 12 22 35 99 53 170
25 96 35 124 40 108 11 -36 23 -27 32 25 9 54 8 657 -2 778 -6 77 -5 82 20
112 25 30 31 32 95 32 98 0 259 18 370 40 213 44 672 70 1140 66 195 -2 400
-7 455 -11 89 -7 103 -10 130 -34 35 -32 67 -47 115 -57 19 -3 48 -17 63 -30
16 -13 36 -24 45 -24 9 0 28 -9 42 -20 15 -12 41 -20 64 -20 21 0 54 -9 72
-21 18 -11 39 -19 46 -18 18 4 61 -12 73 -26 10 -12 97 -33 255 -61 41 -7 76
-13 78 -13 1 -1 2 -10 2 -20 0 -27 15 -34 85 -42 33 -4 99 -15 148 -24 69 -12
96 -13 128 -5 39 11 43 10 71 -17 16 -15 37 -27 47 -25 27 4 37 -15 56 -101
17 -79 30 -101 42 -71 5 14 8 14 24 -7 10 -13 19 -28 19 -34 0 -5 7 -19 15
-29 12 -15 17 -17 29 -7 13 11 18 7 31 -24 8 -21 15 -66 15 -100 0 -34 7 -82
15 -105 8 -23 15 -52 15 -64 0 -11 9 -32 20 -46 11 -14 20 -32 20 -40 0 -8 17
-28 36 -45 20 -16 49 -41 64 -55 16 -14 47 -36 70 -50 40 -24 70 -64 70 -93 0
-18 43 -47 70 -47 12 0 29 -15 44 -39 18 -28 31 -38 43 -35 13 4 25 -8 46 -46
21 -37 33 -50 45 -45 17 6 72 -46 72 -69 0 -8 9 -16 19 -19 14 -3 22 -17 26
-43 10 -64 22 -84 55 -91 26 -5 36 -16 62 -70 20 -42 35 -62 44 -59 18 7 52
-38 65 -87 14 -52 54 -92 102 -101 21 -4 41 -15 47 -26 14 -26 42 -25 65 0 24
27 111 29 119 3 7 -22 69 -65 99 -69 128 -15 211 -47 219 -84 2 -8 12 -15 23
-15 15 0 22 -10 29 -44 12 -55 40 -85 91 -98 22 -5 60 -23 85 -39 42 -27 43
-29 20 -32 -39 -6 -46 -20 -14 -27 66 -15 114 -61 114 -110 0 -11 6 -31 13
-45 12 -25 14 -25 117 -22 l105 3 39 -35 c34 -32 38 -39 32 -68 -14 -68 -12
-83 11 -86 12 -2 39 -19 59 -38 21 -19 41 -34 46 -34 4 0 11 -15 16 -32 6 -23
15 -34 30 -36 27 -4 29 -22 3 -22 -11 0 -22 -4 -26 -9 -5 -9 87 -41 117 -41 8
0 19 -5 25 -11 7 -7 29 -12 50 -13 36 -1 38 -3 46 -45 12 -63 -6 -125 -34
-116 -23 8 -65 -16 -73 -42 -6 -18 -48 -43 -73 -43 -14 0 -28 -43 -19 -59 3
-5 25 -17 49 -26 46 -18 94 -72 77 -89 -29 -29 4 -103 41 -93 31 8 51 -17 63
-79 9 -44 16 -60 31 -63 10 -2 25 -9 33 -17 7 -8 32 -14 54 -14 22 0 54 -8 71
-17 18 -10 34 -19 36 -20 10 -6 -43 -63 -60 -63 -10 0 -19 -7 -19 -15 0 -23
-120 -49 -148 -31 -7 4 -12 13 -12 20 0 8 -11 21 -25 30 -23 15 -27 15 -49 1
-32 -21 -61 -92 -45 -111 35 -42 -52 -68 -123 -36 -24 10 -49 26 -57 35 -7 10
-19 17 -25 17 -7 0 -29 9 -51 20 -21 11 -55 23 -74 26 -20 4 -46 16 -59 27
-12 12 -36 22 -53 23 -18 1 -37 11 -45 23 -9 13 -26 21 -43 21 -30 0 -32 4
-62 93 -7 20 -16 37 -20 37 -3 0 -9 -18 -13 -41 -7 -45 14 -103 46 -122 14 -9
18 -24 18 -68 0 -107 22 -157 36 -83 l7 37 30 -66 c23 -51 34 -66 49 -64 16 2
25 -12 46 -64 17 -42 41 -80 65 -102 20 -20 37 -42 37 -49 1 -22 88 -89 143
-109 29 -11 54 -24 55 -29 2 -6 12 -10 22 -10 10 0 33 -14 51 -31 22 -20 48
-33 73 -37 28 -4 48 -15 69 -39 16 -18 34 -32 41 -31 25 5 109 -15 139 -32 18
-10 64 -25 103 -33 39 -8 80 -20 92 -26 11 -6 34 -11 50 -11 16 0 45 -6 63
-14 19 -8 68 -17 109 -21 41 -4 91 -11 110 -17 41 -11 124 -24 270 -41 58 -7
116 -20 130 -29 14 -9 69 -21 124 -28 63 -8 114 -21 141 -36 25 -13 71 -25
111 -29 81 -9 104 -19 104 -45 0 -14 7 -20 21 -20 11 0 39 -11 62 -24 23 -13
65 -29 92 -36 28 -6 59 -16 70 -20 11 -5 42 -11 69 -14 27 -3 57 -13 67 -22
10 -9 35 -17 56 -18 21 -1 49 -9 63 -18 14 -9 53 -18 86 -21 54 -4 101 -18
156 -48 9 -5 36 -11 60 -15 24 -3 53 -13 65 -20 12 -8 33 -14 46 -14 13 0 48
-13 78 -29 30 -16 79 -32 109 -36 56 -7 115 -32 159 -66 13 -11 39 -19 58 -19
19 0 48 -9 64 -21 16 -11 34 -17 39 -14 6 4 27 -5 46 -20 19 -15 40 -25 47
-22 7 2 26 -4 42 -14 53 -33 97 -49 129 -49 17 0 47 -8 66 -18 19 -11 71 -27
115 -36 44 -10 96 -21 115 -26 19 -5 44 -11 55 -13 13 -2 19 -9 17 -20 -4 -24
28 -34 133 -41 151 -11 248 -28 285 -50 34 -21 47 -21 547 -23 445 -1 516 -3
544 -17 17 -9 35 -13 40 -10 5 2 21 -1 36 -9 52 -26 166 -40 258 -33 105 9
115 12 115 40 -1 29 -20 51 -53 60 -15 3 -36 15 -46 25 -11 11 -27 21 -38 23
-10 2 -19 14 -21 28 -4 30 -37 67 -66 76 -12 4 -32 15 -45 25 -13 11 -30 19
-38 19 -8 0 -28 11 -45 25 -16 14 -42 25 -57 25 -16 0 -40 9 -54 21 -15 11
-32 19 -39 17 -27 -5 -66 13 -71 32 -3 12 -14 20 -25 20 -12 0 -24 4 -27 10
-7 12 -139 76 -175 85 -54 14 -140 54 -140 66 0 25 -45 69 -71 69 -21 0 -35
10 -56 40 -19 27 -33 38 -45 34 -10 -3 -29 8 -50 28 -31 31 -69 47 -193 82
-33 9 -49 18 -47 28 4 28 -43 59 -99 64 -30 3 -65 13 -79 23 -14 10 -37 21
-51 24 -15 4 -34 18 -43 32 -9 14 -25 25 -36 25 -10 0 -23 6 -27 14 -4 7 -24
21 -43 31 -19 10 -42 23 -50 31 -9 7 -32 15 -53 18 -20 2 -46 12 -59 20 -15
11 -45 16 -93 16 l-70 1 -27 43 c-26 40 -32 44 -78 48 -28 3 -58 12 -68 21 -9
8 -30 19 -47 23 -35 8 -111 49 -141 76 -14 13 -24 16 -29 9 -12 -21 -24 -11
-51 47 -34 71 -31 67 -47 53 -18 -15 -32 1 -41 48 -8 44 -23 61 -52 61 -13 0
-24 4 -24 9 0 17 -63 31 -140 31 -57 0 -81 4 -90 15 -18 22 -33 19 -65 -15
-15 -16 -31 -27 -35 -25 -11 7 1 107 17 138 30 58 -25 207 -77 207 -10 0 -24
9 -31 20 -13 19 -142 73 -152 64 -2 -3 -30 7 -60 21 -31 14 -67 29 -81 35 -14
5 -26 15 -26 21 0 6 -7 9 -15 6 -9 -4 -26 9 -46 34 -24 31 -37 39 -53 35 -21
-5 -76 36 -76 58 0 5 -6 17 -13 25 -8 9 -19 35 -26 59 -7 25 -18 42 -26 42 -9
0 -15 10 -15 24 0 32 -53 96 -98 117 -37 17 -92 63 -92 77 0 4 -15 14 -32 23
-18 8 -54 26 -80 38 -26 13 -51 20 -57 16 -6 -3 -21 1 -33 9 -12 9 -38 16 -58
16 -22 0 -51 11 -79 30 -24 17 -52 30 -63 30 -18 0 -23 14 -19 56 1 22 -22 36
-84 50 -61 14 -82 31 -94 77 -13 52 -30 69 -74 73 -70 6 -220 40 -249 55 -10
6 -18 21 -18 34 0 16 -6 25 -15 25 -14 0 -18 9 -13 28 1 4 9 6 16 4 8 -2 26 8
41 21 29 28 52 31 196 28 110 -2 240 -38 250 -70 3 -9 17 -22 32 -28 100 -43
136 -88 137 -171 2 -68 20 -81 77 -59 21 8 48 13 59 10 16 -4 23 0 27 15 10
40 53 47 192 29 70 -10 170 -17 222 -17 51 -1 126 -5 164 -10 39 -5 140 -17
225 -26 164 -17 215 -32 205 -63 -9 -30 17 -41 135 -56 61 -8 130 -24 154 -35
23 -10 51 -19 62 -19 52 0 121 -15 139 -31 11 -10 38 -20 60 -23 22 -2 72 -11
110 -20 39 -8 106 -18 149 -21 44 -4 81 -8 82 -9 1 -1 11 -21 23 -44 20 -40
25 -43 64 -45 23 -1 51 -3 62 -4 11 -1 25 -2 32 -3 6 -1 21 -17 33 -37 13 -20
28 -33 35 -30 15 5 24 -12 18 -32 -4 -10 -8 -10 -19 -2 -10 9 -15 6 -20 -14
-8 -33 2 -60 21 -53 7 3 28 -1 45 -9 44 -23 240 -2 283 29 25 19 43 22 145 23
65 1 166 7 225 13 59 7 112 9 117 6 30 -19 345 -25 376 -7 9 5 8 12 -5 28 -26
33 -55 44 -111 44 -59 0 -122 28 -146 65 -11 17 -26 25 -44 25 -15 0 -38 8
-51 18 -13 11 -40 22 -60 25 -20 3 -56 15 -79 26 -24 11 -59 24 -79 27 -20 4
-44 11 -54 16 -27 14 -114 38 -172 48 -27 5 -75 14 -105 20 -30 5 -77 13 -105
16 -27 3 -57 12 -66 20 -8 8 -21 14 -27 14 -17 0 -15 17 3 24 24 9 18 21 -17
31 -17 6 -36 17 -41 26 -14 22 8 73 51 121 30 33 34 45 42 122 9 88 35 146 65
146 14 0 25 21 25 51 0 10 12 43 27 73 20 42 30 53 39 45 14 -11 15 -8 34 141
6 47 18 132 27 190 13 87 16 199 16 640 0 546 -4 614 -40 698 -26 61 -30 67
-44 67 -14 0 -57 129 -58 177 -1 15 -8 33 -16 40 -70 60 -76 70 -82 121 -3 29
-16 74 -29 101 -13 28 -24 56 -24 63 0 9 -14 13 -40 13 -23 0 -55 7 -71 16
-23 12 -34 13 -44 4 -11 -9 -15 -7 -20 13 -4 13 -5 41 -3 63 4 55 30 57 63 4
21 -33 30 -40 47 -34 15 4 26 -1 43 -22 l22 -28 59 21 c88 31 199 17 232 -29
7 -9 29 -20 50 -24 41 -7 70 -28 82 -59 6 -15 25 -24 71 -34 74 -16 111 -37
107 -60 -3 -25 12 -61 26 -61 7 0 30 -11 50 -25 20 -14 44 -25 52 -25 8 0 29
-8 47 -17 18 -9 37 -17 42 -18 30 -3 66 -28 80 -54 21 -41 18 -69 -10 -116
-31 -49 -55 -100 -56 -117 0 -7 -4 -3 -9 10 -13 30 -27 28 -33 -5 -3 -16 -12
-46 -21 -68 -8 -22 -15 -72 -16 -111 0 -102 -8 -136 -30 -129 -22 7 -27 -15
-36 -156 -9 -135 8 -243 37 -236 21 6 23 0 34 -88 9 -69 30 -107 58 -103 19 3
22 -3 28 -43 7 -44 54 -149 68 -149 4 0 11 -14 16 -32 8 -26 18 -34 55 -44 25
-8 55 -14 67 -14 14 0 33 -15 54 -45 28 -38 38 -45 78 -50 25 -4 59 -16 74
-27 15 -10 49 -23 75 -28 26 -5 76 -15 112 -23 36 -8 87 -18 113 -21 26 -4 63
-14 82 -22 19 -8 60 -14 92 -14 75 0 222 -23 250 -38 12 -7 35 -12 51 -12 16
0 55 -8 88 -19 32 -10 91 -24 129 -31 39 -7 82 -19 97 -26 15 -8 44 -14 64
-14 39 0 126 -13 239 -36 260 -53 509 -69 555 -36 20 14 56 18 190 24 179 7
210 10 254 28 17 6 79 16 138 21 88 8 116 15 144 34 20 14 52 27 73 31 20 4
52 14 71 24 60 31 107 50 122 50 21 0 56 29 111 91 36 40 73 63 87 54 6 -3 22
14 38 39 19 32 34 45 50 46 23 0 71 45 72 66 0 6 6 17 14 23 8 6 19 31 25 56
7 27 18 46 30 50 23 7 57 143 67 268 5 70 10 90 24 97 10 6 22 24 25 42 4 18
14 42 21 53 8 12 18 45 24 74 5 29 16 67 25 84 8 18 19 65 25 105 6 41 14 81
19 90 5 9 12 52 16 94 7 76 19 105 31 74 16 -41 20 -26 64 233 11 62 18 73 31
49 8 -14 25 -17 92 -17 50 0 90 5 102 13 11 7 32 16 48 20 l27 6 0 330 c0 257
-3 330 -12 331 -7 0 -22 3 -33 6 -28 8 -96 7 -121 -1 -15 -5 -29 0 -52 19 -29
24 -32 32 -32 83 0 69 -7 65 -12 -7 -6 -74 -28 -81 -29 -9 0 29 -4 73 -8 98
-8 39 -29 164 -47 270 -6 33 -7 34 -15 12 -12 -32 -29 -18 -29 24 0 19 -11 51
-25 74 -14 22 -25 45 -25 52 0 8 -21 38 -47 68 -28 31 -47 62 -45 72 2 12 -3
18 -16 18 -10 0 -27 9 -37 20 -14 16 -31 20 -81 20 -53 0 -67 4 -84 22 -11 13
-34 23 -50 24 -16 1 -45 5 -64 8 -30 6 -37 3 -52 -19 -16 -24 -16 -27 1 -45 9
-10 29 -20 44 -22 22 -3 27 -9 31 -43 8 -58 -6 -95 -36 -95 -16 0 -47 -22 -95
-70 -49 -48 -79 -70 -96 -70 -13 0 -34 -11 -47 -25 -14 -15 -34 -25 -50 -25
-16 0 -37 -10 -51 -26 -13 -14 -28 -23 -33 -20 -5 3 -21 -8 -36 -24 -49 -56
-65 -38 -75 80 l-6 75 -30 0 c-25 0 -30 -5 -36 -33 -9 -44 -13 -46 -84 -62
-37 -8 -73 -23 -95 -41 -19 -16 -43 -29 -53 -29 -10 0 -27 -16 -38 -35 -20
-34 -29 -39 -57 -36 -7 1 -22 -9 -33 -23 -15 -19 -30 -26 -54 -26 -24 0 -37
-7 -49 -25 -27 -41 -81 -91 -114 -104 -30 -13 -45 -38 -57 -97 -11 -55 -33
-66 -106 -54 -79 12 -146 13 -153 1 -4 -5 -1 -11 5 -13 9 -3 9 -12 2 -33 l-10
-30 -104 -1 c-94 0 -111 -3 -159 -28 -104 -53 -112 -56 -126 -56 -13 0 -71 35
-84 51 -3 3 -61 2 -130 -3 -118 -8 -231 -5 -275 7 -11 3 -64 9 -118 14 -63 5
-104 14 -115 24 -9 8 -44 20 -77 27 -33 6 -65 17 -70 24 -6 8 -40 20 -76 28
-71 16 -102 39 -113 82 -4 15 -17 31 -30 36 -27 10 -105 2 -123 -12 -9 -7 -25
2 -56 33 -60 60 -84 77 -121 85 -16 3 -42 14 -56 24 -14 10 -54 23 -89 30 -69
13 -100 28 -145 72 -16 15 -39 28 -53 28 -14 0 -37 6 -51 14 -15 8 -40 17 -55
21 -15 3 -30 13 -34 23 -18 54 -77 162 -89 162 -7 0 -16 11 -20 25 -4 18 -13
25 -29 25 -15 0 -26 8 -30 20 -10 31 -71 27 -107 -7 -28 -26 -28 -26 -63 -10
-19 9 -35 20 -35 25 0 11 -78 62 -96 62 -8 0 -14 7 -14 15 0 8 9 15 20 15 40
0 19 16 -37 28 -134 30 -157 41 -178 86 -14 29 -27 42 -45 44 -13 2 -35 15
-47 28 -14 15 -33 24 -53 24 -17 0 -43 6 -58 14 -15 7 -55 14 -90 14 -35 1
-91 6 -125 12 -34 5 -84 10 -110 10 -38 0 -53 5 -67 22 -13 16 -28 22 -54 21
-31 -1 -39 3 -46 23 -9 23 -23 28 -61 25 -9 -1 -22 5 -29 14 -11 13 -10 19 5
35 9 10 23 16 30 14 7 -3 28 2 45 11 17 9 38 14 46 11 17 -7 64 42 64 67 0 9
11 23 25 29 14 6 25 15 25 19 0 4 17 13 38 20 20 6 52 28 70 48 43 48 42 47
77 79 17 15 45 46 64 67 19 22 42 39 51 37 21 -3 33 11 55 70 13 36 22 47 37
45 14 -1 27 12 48 48 15 27 34 50 41 50 24 0 55 29 69 65 7 19 19 40 27 46 7
6 19 27 26 45 21 56 51 99 70 99 9 0 17 3 18 8 0 4 5 48 10 97 5 50 13 144 18
210 5 66 14 144 20 174 6 29 11 55 11 57 0 2 5 3 12 2 18 -4 26 45 27 182 1
160 -7 230 -28 238 -9 3 -27 16 -41 29 -32 31 -62 38 -112 27 -35 -8 -43 -15
-57 -49 -23 -58 -47 -89 -64 -82 -9 3 -27 -7 -43 -24 -18 -19 -38 -29 -56 -29
-16 0 -38 -10 -50 -22 -13 -13 -32 -22 -43 -20 -28 3 -50 -17 -64 -60 -10 -29
-19 -38 -44 -44 -17 -3 -44 -15 -59 -25 -15 -11 -40 -27 -55 -37 -16 -10 -43
-24 -62 -30 -19 -7 -43 -19 -52 -28 -10 -9 -36 -17 -58 -18 -26 -1 -49 -10
-64 -24 -13 -13 -36 -22 -54 -22 -17 0 -37 -8 -47 -19 -10 -11 -30 -19 -46
-19 -33 1 -91 -20 -105 -39 -6 -8 -48 -18 -99 -23 -48 -6 -98 -17 -109 -25
-12 -8 -38 -15 -59 -15 -21 0 -57 -5 -80 -10 -24 -6 -78 -17 -120 -26 -42 -9
-82 -22 -89 -30 -6 -8 -16 -14 -21 -14 -5 0 -27 -9 -49 -19 -22 -11 -46 -18
-53 -15 -9 3 -16 -6 -20 -27 -8 -42 -46 -76 -94 -84 -46 -7 -86 -51 -71 -77 6
-11 4 -20 -7 -29 -21 -18 -121 -49 -157 -49 -15 0 -51 -12 -79 -27 -28 -15
-64 -26 -80 -25 -17 1 -28 -3 -28 -10 0 -21 -49 -61 -66 -54 -9 3 -30 -4 -47
-16 -18 -13 -39 -22 -48 -20 -8 1 -27 -9 -42 -22 -23 -21 -27 -33 -27 -80 0
-63 -7 -86 -25 -86 -7 0 -15 -7 -19 -15 -3 -8 -14 -15 -25 -15 -20 0 -40 -25
-61 -80 -7 -19 -19 -42 -27 -51 -8 -9 -19 -44 -25 -78 -7 -35 -17 -61 -24 -61
-6 0 -14 -9 -17 -21 -3 -11 -15 -23 -26 -26 -11 -3 -23 -13 -26 -23 -7 -22
-47 -40 -74 -33 -14 4 -21 1 -21 -9 0 -22 -55 -59 -68 -46 -8 8 -18 2 -36 -18
-14 -16 -26 -35 -26 -41 0 -7 -11 -13 -24 -13 -13 0 -40 -11 -60 -25 -25 -17
-51 -25 -79 -25 -53 0 -63 -7 -71 -47 -7 -32 -42 -63 -70 -63 -8 0 -28 -16
-43 -35 -26 -32 -30 -34 -73 -28 -25 3 -56 12 -70 21 -19 12 -60 15 -198 16
-169 1 -173 0 -190 -22 -13 -17 -20 -20 -29 -11 -14 14 -41 -10 -68 -63 -12
-23 -33 -44 -55 -54 -84 -38 -94 -47 -65 -58 18 -7 20 -26 3 -26 -24 -1 -88
-68 -94 -99 -5 -26 -12 -31 -53 -41 -25 -6 -107 -14 -181 -17 -74 -3 -140 -10
-146 -15 -13 -10 -145 8 -154 21 -3 5 -22 11 -42 15 -21 4 -41 13 -45 20 -8
13 -40 32 -103 60 -52 24 -87 59 -86 87 1 19 -3 24 -22 21 -13 -1 -36 7 -52
18 -17 12 -44 20 -67 20 -25 0 -50 8 -71 24 -18 13 -51 26 -74 30 -22 4 -52
16 -66 26 -13 11 -35 20 -47 20 -12 0 -30 9 -40 20 -27 29 -100 28 -116 -2
-15 -28 -4 -345 12 -382 16 -34 -23 -134 -55 -141 -98 -22 -120 -24 -188 -15
-119 15 -144 13 -171 -15 -14 -16 -32 -24 -47 -23 -15 2 -28 -4 -35 -17 -36
-67 -36 -67 -51 -54 -12 10 -18 8 -32 -12 -26 -36 -41 -62 -48 -81 -3 -10 -27
-24 -53 -32 -132 -42 -212 -81 -219 -108 -4 -16 -16 -18 -96 -18 -50 0 -96 4
-101 8 -6 4 -17 20 -25 36 -8 16 -20 31 -28 33 -16 7 -54 -34 -67 -71 -20 -58
-117 -66 -143 -12 -15 30 -52 144 -52 159 0 7 -9 20 -20 30 -15 12 -20 30 -20
64 -1 27 -5 68 -10 93 -5 25 -14 122 -21 215 -10 151 -10 174 5 208 14 36 14
48 -1 154 -13 95 -14 126 -5 173 19 89 15 190 -8 220 -15 20 -21 23 -31 13
-17 -17 -70 -16 -95 1 -11 8 -33 16 -49 18 -25 3 -31 10 -48 64 -18 58 -20 61
-60 70 l-42 9 -6 63 c-3 35 -11 68 -18 75 -6 6 -32 12 -59 13 -26 1 -50 3 -53
3 -10 2 -29 51 -29 74 0 35 23 77 43 77 26 0 59 59 53 97 -6 41 -46 96 -61 83
-7 -6 -19 7 -38 40 -27 48 -27 48 -8 71 12 15 30 24 48 24 21 0 28 5 28 20 0
13 -7 20 -20 20 -11 0 -26 4 -32 8 -29 18 -2 159 31 165 20 4 21 18 2 25 -35
14 -45 140 -11 153 20 8 53 -13 70 -46 20 -38 19 -60 -5 -90 -27 -35 -25 -40
14 -40 26 0 36 5 41 20 5 16 15 20 51 20 33 0 46 4 51 18 11 31 44 67 61 67
12 0 18 10 20 30 8 93 35 142 73 130 30 -10 47 34 46 116 -2 64 2 82 28 134
27 56 34 98 24 150 -3 16 3 21 31 25 89 14 163 36 168 50 9 24 24 30 84 30 50
0 60 3 74 25 28 43 46 47 101 23 44 -18 53 -19 79 -7 16 8 30 22 32 31 5 25
-36 61 -61 54 -11 -3 -29 0 -40 5 -15 9 -18 17 -12 47 11 57 23 75 49 68 27
-7 62 25 53 47 -9 23 14 37 63 37 62 1 187 32 207 53 9 9 29 40 43 69 20 42
30 53 47 51 13 -2 34 10 52 28 21 21 37 29 50 24 13 -4 26 4 45 25 14 18 26
37 26 43 0 7 7 3 15 -7 14 -19 15 -18 26 12 11 32 32 43 109 57 66 12 70 15
70 48 0 43 33 95 66 103 33 8 74 46 74 68 0 24 45 66 70 66 23 0 55 30 70 68
5 12 17 22 27 22 10 1 34 14 53 30 19 17 39 30 45 30 15 0 50 41 64 76 12 30
90 80 118 76 6 -2 25 12 43 30 18 17 43 32 56 33 12 0 34 11 47 23 13 12 46
26 76 32 29 5 56 12 61 15 4 3 58 14 119 24 91 15 115 23 131 42 20 24 26 49
13 49 -185 5 -473 22 -501 29 -20 5 -64 12 -97 16 -48 6 -56 9 -37 16 47 18
17 26 -115 33 -76 4 -154 9 -173 12 -19 2 -96 8 -170 13 -74 5 -182 14 -240
20 -156 16 -810 18 -1065 3z m-407 -254 c-4 -28 -48 -37 -67 -14 -18 22 -5 36
35 36 31 0 35 -3 32 -22z m-402 -93 c3 -7 26 -22 50 -31 77 -29 50 -64 -54
-71 -57 -5 -73 -2 -104 17 -44 25 -47 44 -15 75 27 28 114 35 123 10z m-651
-17 c38 -17 28 -42 -19 -46 -21 -2 -49 -10 -62 -19 -28 -18 -44 -10 -37 18 5
17 45 43 90 58 1 1 14 -4 28 -11z m1848 -46 c6 -29 46 -56 70 -46 8 3 27 0 43
-6 28 -11 28 -12 10 -26 -13 -9 -45 -14 -93 -14 -87 0 -103 15 -78 73 8 19 11
37 8 41 -4 3 3 6 14 6 14 0 22 -8 26 -28z m-2047 -62 l44 0 0 -46 c0 -45 0
-45 -32 -42 -29 3 -33 7 -33 33 -1 39 -30 42 -30 3 -1 -31 -9 -43 -24 -34 -10
7 -13 73 -4 89 3 5 12 6 20 3 8 -3 35 -6 59 -6z m665 -71 l30 -21 -33 -33
c-18 -18 -36 -30 -40 -28 -10 5 -10 87 -1 96 9 10 12 9 44 -14z m199 -40 c0
-14 -47 -22 -67 -11 -17 10 -16 11 7 20 26 10 60 5 60 -9z m-1952 -61 c5 -40
-12 -63 -56 -77 -52 -18 -82 -8 -82 28 0 34 17 51 51 51 15 0 32 7 39 15 19
23 45 14 48 -17z m1731 -105 c1 -12 13 -39 27 -60 l25 -38 -43 -37 c-24 -21
-46 -38 -49 -38 -4 0 -10 -16 -14 -36 -12 -64 -26 -86 -52 -79 -14 3 -33 -1
-46 -10 -12 -8 -43 -15 -69 -15 -44 0 -48 2 -48 24 0 30 9 36 68 45 47 6 59
18 85 86 2 6 11 4 21 -4 9 -8 20 -11 24 -7 8 9 31 105 38 161 8 61 14 74 24
50 5 -11 9 -30 9 -42z m1189 30 c13 -12 22 -36 26 -70 6 -47 4 -52 -20 -71
-20 -14 -29 -31 -33 -63 l-6 -44 -60 0 -59 0 -14 48 c-7 26 -17 47 -23 47 -5
0 -9 7 -9 15 0 8 5 15 12 15 20 0 68 53 68 75 0 39 23 56 86 64 7 0 21 -7 32
-16z m-579 -16 c10 -26 3 -77 -10 -77 -5 0 -16 11 -25 25 -14 21 -15 31 -6 50
14 31 30 32 41 2z m289 -92 c15 -5 16 -36 0 -70 -14 -32 -17 -31 -62 4 -23 18
-44 27 -56 24 -21 -6 -36 17 -27 41 4 11 20 13 69 9 35 -2 69 -6 76 -8z
m-1286 -9 c15 -1 36 -10 47 -21 26 -27 53 -131 37 -143 -6 -5 -54 -6 -106 -3
-88 6 -95 8 -92 26 12 100 17 120 34 137 13 13 25 17 36 12 9 -4 29 -8 44 -8z
m-294 -125 c-2 -9 -13 -17 -26 -19 -18 -3 -22 1 -22 21 0 14 3 33 7 43 6 15 8
15 25 -6 10 -13 17 -30 16 -39z m1027 -1 c0 -8 -10 -16 -22 -18 -22 -3 -32 16
-16 32 12 11 38 2 38 -14z m458 3 c-7 -2 -19 -2 -25 0 -7 3 -2 5 12 5 14 0 19
-2 13 -5z m156 -34 c39 -14 39 -28 0 -98 -44 -78 -65 -96 -134 -110 -33 -7
-77 -17 -98 -22 -20 -6 -41 -7 -46 -5 -5 3 -19 -3 -32 -13 -22 -18 -24 -28
-29 -152 l-5 -133 -30 -8 c-49 -13 -76 -71 -40 -85 25 -9 77 -65 90 -96 10
-24 10 -39 -1 -75 -8 -25 -14 -57 -14 -72 0 -63 -68 -59 -91 4 -10 27 -17 35
-30 31 -14 -5 -21 6 -36 52 l-18 58 -46 3 c-42 3 -49 0 -66 -25 -11 -15 -27
-46 -35 -68 -12 -31 -22 -41 -43 -43 -14 -2 -39 -16 -53 -32 -42 -44 -68 -47
-87 -11 -8 17 -22 31 -30 31 -16 0 -24 11 -30 42 -3 12 -8 24 -13 27 -17 11
-32 50 -26 65 3 9 18 19 33 22 14 2 42 9 61 14 19 5 74 12 123 15 72 6 87 10
87 24 0 9 4 21 9 27 6 5 11 36 13 69 l3 60 40 3 c72 4 85 10 85 37 0 20 5 25
24 25 28 0 36 16 36 75 0 44 11 85 30 108 5 6 21 25 35 41 14 16 25 32 25 36
0 19 44 50 73 50 37 0 51 8 60 33 4 9 17 17 30 17 20 0 28 9 41 45 17 44 19
45 60 45 24 0 57 -5 75 -11z m-755 -5 c17 -6 22 -49 7 -58 -4 -3 -11 -19 -14
-35 -4 -17 -16 -40 -28 -52 -21 -21 -21 -21 -42 -1 -12 11 -31 22 -42 24 -12
2 -22 14 -26 33 -4 17 -10 38 -14 47 -5 13 3 19 42 31 53 16 93 20 117 11z
m288 -5 c31 0 51 -20 42 -43 -5 -14 -14 -16 -48 -10 -22 4 -52 8 -65 9 -27 2
-36 17 -27 41 5 12 14 15 39 10 17 -4 44 -7 59 -7z m908 -145 c0 -16 -16 -19
-25 -4 -8 13 4 32 16 25 5 -4 9 -13 9 -21z m-1642 -124 c31 -79 31 -79 46 -58
18 24 26 12 26 -38 0 -44 -15 -67 -26 -40 -7 18 -24 22 -24 6 0 -16 -42 -70
-55 -70 -6 0 -18 9 -28 20 -9 11 -23 20 -30 20 -29 0 -58 59 -64 130 -8 98 -6
102 68 98 l61 -3 26 -65z m902 -259 c0 -5 9 -11 20 -14 11 -3 20 -12 20 -21 0
-16 -25 -21 -54 -10 -24 9 -19 54 6 54 4 0 8 -4 8 -9z m544 -17 c21 -8 20 -41
-1 -48 -55 -16 -92 -17 -126 -2 -43 17 -46 29 -14 44 24 12 116 16 141 6z
m-1464 -170 c0 -28 -15 -32 -29 -6 -7 13 -7 22 1 30 16 16 28 5 28 -24z m-524
-221 c7 -10 14 -24 14 -32 0 -21 31 -40 66 -41 42 0 46 -16 21 -71 -12 -27
-22 -38 -25 -29 -7 25 -34 40 -73 40 -20 0 -42 6 -48 14 -18 21 4 136 26 136
3 0 12 -8 19 -17z m933 -28 c11 -19 25 -35 31 -35 5 0 10 -8 10 -18 0 -20 -72
-62 -106 -62 -10 0 -24 -4 -31 -8 -15 -9 -63 -105 -63 -125 0 -28 -19 -29 -45
-3 -14 15 -37 26 -51 26 -14 0 -39 8 -55 17 -26 15 -31 16 -39 3 -10 -16 -15
-8 -23 41 -5 36 26 79 44 62 11 -11 10 -13 -1 -14 -8 -1 10 -5 40 -10 71 -10
83 1 90 84 l5 62 65 6 c36 3 75 6 87 7 14 1 27 -9 42 -33z m-391 -62 c-5 -25
-28 -28 -28 -4 0 12 6 21 16 21 9 0 14 -7 12 -17z m522 -293 c8 -33 -3 -75
-21 -75 -23 0 -41 49 -29 80 13 33 42 30 50 -5z m-2690 -310 c0 -15 -7 -20
-24 -20 -14 0 -28 5 -31 10 -10 16 4 30 31 30 17 0 24 -5 24 -20z m2784 -51
c5 -30 2 -48 -9 -65 -24 -37 -30 -29 -29 34 2 74 2 72 18 72 8 0 16 -16 20
-41z m-2634 -171 c14 -16 33 -23 57 -23 42 0 59 -20 50 -57 -9 -35 -40 -40
-77 -13 -17 13 -39 21 -49 18 -9 -2 -23 3 -31 12 -11 13 -11 21 3 50 9 19 19
35 21 35 3 0 15 -10 26 -22z m910 -306 c34 -27 21 -68 -28 -89 -31 -13 -48
-14 -102 -5 -36 6 -70 18 -76 27 -6 8 -22 14 -35 13 -21 -3 -24 1 -24 27 0 28
3 30 45 36 25 3 79 7 121 7 61 2 81 -2 99 -16z m2240 -492 c0 -5 -9 -10 -20
-10 -11 0 -20 5 -20 10 0 6 9 10 20 10 11 0 20 -4 20 -10z m10613 -1076 c-3
-8 -9 -14 -13 -14 -13 0 -22 19 -15 30 9 14 34 0 28 -16z m-3745 -91 c5 -17
-26 -29 -40 -15 -6 6 -7 15 -3 22 9 14 37 9 43 -7z m-10051 -390 c-3 -10 -5
-4 -5 12 0 17 2 24 5 18 2 -7 2 -21 0 -30z m15181 -144 c-1 -13 -7 -23 -13
-22 -13 3 -18 30 -11 50 10 24 29 1 24 -28z m-8483 -2265 c100 -45 84 -82 -36
-86 -64 -3 -80 0 -98 16 -30 27 -27 62 7 80 39 21 64 20 127 -10z m-201 -413
c3 -4 -3 -16 -12 -25 -16 -13 -21 -14 -37 -2 -10 7 -15 18 -11 24 8 14 52 16
60 3z m-13 -446 c11 -70 -10 -94 -54 -60 -15 11 -18 21 -12 54 6 37 22 52 50
46 5 -1 13 -19 16 -40z m603 -52 c5 -17 3 -29 -6 -34 -28 -18 -42 -3 -32 36 8
33 30 32 38 -2z m20 -96 c8 -12 19 -48 26 -79 12 -62 32 -78 70 -58 14 8 66
10 145 8 105 -3 126 -6 145 -23 17 -16 24 -17 40 -7 26 16 55 15 69 -2 6 -7
37 -16 69 -20 115 -14 104 -19 122 56 8 37 20 72 25 77 7 7 37 8 78 4 61 -5
69 -9 83 -34 7 -15 14 -34 14 -42 0 -23 21 -37 41 -27 14 8 23 2 46 -35 15
-24 35 -44 44 -45 9 0 24 -9 33 -19 10 -11 32 -23 49 -27 17 -3 43 -19 58 -35
15 -16 36 -29 47 -29 20 0 29 -22 51 -128 14 -66 35 -92 76 -92 26 0 42 -8 65
-34 26 -29 40 -35 91 -40 50 -6 63 -4 73 9 10 14 27 16 106 11 126 -6 168 -11
177 -20 4 -4 9 -45 10 -90 2 -94 19 -199 36 -227 19 -30 -3 -53 -61 -64 -28
-5 -61 -20 -74 -32 -14 -13 -32 -23 -42 -23 -10 0 -26 -10 -36 -22 -16 -20
-27 -23 -83 -21 -35 1 -81 9 -102 17 -21 9 -48 16 -60 16 -17 0 -26 9 -34 30
-5 17 -17 33 -26 36 -24 10 -93 -16 -98 -36 -9 -35 -179 -29 -220 8 -12 10
-29 22 -38 25 -11 4 -18 21 -21 56 -6 63 -21 81 -67 81 -20 0 -46 7 -57 14
-12 8 -30 15 -40 16 -10 1 -42 2 -70 4 -28 1 -56 6 -63 10 -7 5 -40 12 -74 17
-190 26 -237 45 -237 93 0 12 -9 36 -20 54 -17 27 -24 31 -45 26 -20 -5 -25
-3 -25 14 0 23 -39 52 -70 52 -12 0 -33 11 -47 24 -19 18 -31 22 -42 16 -11
-6 -32 5 -77 41 -34 27 -67 49 -73 49 -6 0 -11 4 -11 9 0 6 -16 11 -35 13 -45
4 -47 20 -4 33 19 6 40 14 47 18 6 5 17 5 23 1 16 -9 3 61 -18 102 -15 29 -21
32 -95 41 -105 14 -121 29 -116 105 4 50 9 62 41 93 20 19 40 35 45 35 5 0 15
6 22 14 14 18 58 25 83 14 9 -5 23 -19 31 -31z m2246 -1042 c0 -9 -7 -18 -16
-22 -18 -7 -39 11 -30 26 11 17 46 13 46 -4z" />
        <path d="M10190 23962 c0 -16 -7 -37 -15 -48 -20 -27 -19 -39 10 -58 l24 -16
-1 37 c-1 27 4 40 20 51 26 17 27 25 6 46 -25 25 -44 20 -44 -12z" />
        <path d="M4895 23791 c-7 -12 12 -24 25 -16 11 7 4 25 -10 25 -5 0 -11 -4 -15
-9z" />
        <path d="M4940 23781 c0 -6 4 -13 10 -16 6 -3 7 1 4 9 -7 18 -14 21 -14 7z" />
        <path d="M9597 23748 c-26 -14 -21 -56 8 -70 34 -15 49 0 40 40 -7 34 -23 44
-48 30z" />
        <path d="M10280 23471 c0 -22 16 -36 24 -22 8 12 -3 41 -15 41 -5 0 -9 -9 -9
-19z" />
        <path d="M10720 23431 c0 -9 -7 -27 -16 -39 -18 -26 -15 -35 10 -26 9 3 16 14
16 24 0 11 5 22 10 25 15 9 12 32 -5 32 -8 0 -15 -8 -15 -16z" />
        <path d="M9290 23151 c0 -5 5 -13 10 -16 6 -3 10 -2 10 4 0 5 -4 13 -10 16 -5
3 -10 2 -10 -4z" />
        <path d="M19368 23128 c9 -9 15 -9 24 0 9 9 7 12 -12 12 -19 0 -21 -3 -12 -12z" />
        <path d="M19112 23053 c-19 -7 -4 -23 23 -23 29 0 41 16 19 24 -18 7 -23 7
-42 -1z" />
        <path d="M20470 22970 c0 -5 8 -28 17 -50 19 -43 37 -51 47 -22 3 9 13 28 21
41 7 14 12 29 9 33 -7 12 -94 10 -94 -2z" />
        <path d="M19801 22879 c-8 -23 -7 -37 2 -55 l13 -25 26 21 c14 11 33 20 42 20
19 0 21 11 4 28 -7 7 -8 12 -2 12 10 1 -54 30 -66 30 -5 0 -13 -14 -19 -31z" />
        <path d="M18818 22872 c-45 -13 -57 -20 -61 -39 -5 -27 17 -31 47 -8 11 8 37
15 59 15 52 0 82 16 66 36 -14 17 -36 16 -111 -4z" />
        <path d="M19012 22838 c-19 -19 -14 -45 9 -51 26 -7 46 0 53 20 13 33 -36 57
-62 31z" />
        <path d="M20417 22773 c-4 -3 -7 -14 -7 -23 0 -25 -36 -53 -59 -47 -12 3 -27
-3 -37 -14 -23 -26 -4 -74 27 -66 32 8 88 -12 122 -44 21 -20 39 -29 56 -27
24 3 27 9 34 63 12 80 0 110 -47 119 -20 4 -36 13 -36 20 0 20 -39 34 -53 19z" />
        <path d="M20823 22767 c-46 -23 -59 -96 -38 -224 l8 -53 47 0 c91 0 163 19
193 51 33 36 33 48 6 83 -16 20 -18 30 -10 40 9 11 5 18 -22 35 -19 12 -42 21
-51 21 -25 0 -73 27 -79 45 -7 17 -22 18 -54 2z" />
        <path d="M18612 22743 c-16 -30 -19 -95 -4 -100 6 -3 12 3 12 13 0 10 5 33 12
51 9 24 9 36 1 44 -8 8 -14 6 -21 -8z" />
        <path d="M18670 22750 c0 -5 5 -10 10 -10 6 0 10 5 10 10 0 6 -4 10 -10 10 -5
0 -10 -4 -10 -10z" />
        <path d="M35066 22671 c-4 -7 -5 -15 -2 -18 9 -9 19 4 14 18 -4 11 -6 11 -12
0z" />
        <path d="M20203 22503 c-12 -2 -24 -11 -27 -19 -9 -24 12 -64 41 -75 26 -10
78 -4 98 11 6 4 27 10 48 14 37 7 49 27 25 42 -26 16 -151 35 -185 27z" />
        <path d="M6900 22471 c0 -4 6 -16 14 -26 12 -17 13 -17 18 6 3 19 0 25 -14 26
-10 1 -18 -2 -18 -6z" />
        <path d="M18245 22450 c-3 -5 3 -10 14 -10 12 0 21 5 21 10 0 6 -6 10 -14 10
-8 0 -18 -4 -21 -10z" />
        <path d="M18136 22379 c-13 -16 -25 -20 -49 -15 -30 6 -34 3 -57 -40 -13 -25
-34 -51 -47 -57 -13 -5 -23 -16 -23 -24 0 -7 -11 -13 -25 -13 -16 0 -32 -11
-47 -30 -12 -16 -29 -30 -38 -30 -9 0 -43 -25 -76 -55 l-59 -55 -3 -93 c-3
-69 0 -97 11 -112 13 -16 17 -17 31 -6 9 7 16 18 16 23 0 5 32 42 71 81 91 93
93 96 114 136 10 19 29 46 43 60 13 14 30 42 36 61 8 26 18 36 36 39 14 1 37
12 52 23 17 12 36 17 47 13 31 -10 46 28 31 76 -15 44 -36 50 -64 18z" />
        <path d="M20403 22289 c-34 -12 -29 -79 6 -79 25 0 41 20 41 51 0 31 -15 40
-47 28z" />
        <path d="M7208 22219 c-35 -20 -11 -90 26 -76 17 7 27 58 14 75 -12 14 -17 15
-40 1z" />
        <path d="M23304 22139 c-3 -6 -1 -16 5 -22 8 -8 11 -5 11 11 0 24 -5 28 -16
11z" />
        <path d="M2497 22084 c-11 -11 -8 -54 3 -54 6 0 13 6 16 14 7 17 -9 50 -19 40z" />
        <path d="M19722 22028 c-15 -15 -15 -43 0 -85 15 -40 19 -41 36 -6 29 63 3
130 -36 91z" />
        <path d="M23730 22000 c0 -5 5 -10 10 -10 6 0 10 5 10 10 0 6 -4 10 -10 10 -5
0 -10 -4 -10 -10z" />
        <path d="M19800 21726 c0 -27 17 -43 30 -30 10 11 -6 54 -20 54 -5 0 -10 -11
-10 -24z" />
        <path d="M23036 21717 c-10 -7 -16 -22 -14 -33 5 -26 71 -28 76 -1 4 20 -14
47 -32 47 -7 0 -20 -6 -30 -13z" />
        <path d="M19114 21695 c-8 -20 5 -125 16 -125 10 0 60 66 60 80 0 42 -63 79
-76 45z" />
        <path d="M19650 21700 c0 -5 5 -10 11 -10 5 0 7 5 4 10 -3 6 -8 10 -11 10 -2
0 -4 -4 -4 -10z" />
        <path d="M6050 21529 c0 -5 5 -7 10 -4 6 3 10 8 10 11 0 2 -4 4 -10 4 -5 0
-10 -5 -10 -11z" />
        <path d="M20023 21501 c-24 -17 -43 -33 -43 -36 0 -17 26 -55 37 -55 8 0 28
-13 44 -28 29 -27 37 -29 121 -31 73 -1 94 2 109 15 36 32 25 46 -46 56 -11 2
-27 18 -37 39 -22 48 -38 59 -94 65 -44 5 -54 2 -91 -25z" />
        <path d="M17544 21496 c-9 -23 0 -51 16 -51 10 0 15 10 15 29 0 32 -21 47 -31
22z" />
        <path d="M22670 21460 c-16 -16 -28 -20 -50 -15 -23 5 -31 2 -40 -15 -14 -27
-9 -60 11 -73 24 -15 81 27 77 57 -2 17 3 22 25 24 19 2 27 8 25 19 -5 25 -25
26 -48 3z" />
        <path d="M17454 21399 c-10 -16 -5 -122 6 -133 9 -9 15 8 24 80 4 29 2 45 -8
53 -11 9 -16 9 -22 0z" />
        <path d="M20235 21310 c-3 -5 3 -10 14 -10 12 0 21 5 21 10 0 6 -6 10 -14 10
-8 0 -18 -4 -21 -10z" />
        <path d="M19120 21145 c-13 -16 -10 -108 4 -123 4 -4 17 4 28 18 22 27 20 83
-5 107 -12 12 -16 12 -27 -2z" />
        <path d="M17396 21118 c-6 -28 -2 -48 8 -37 10 11 17 69 8 69 -5 0 -12 -14
-16 -32z" />
        <path d="M7670 21105 c0 -8 5 -15 10 -15 6 0 10 7 10 15 0 8 -4 15 -10 15 -5
0 -10 -7 -10 -15z" />
        <path d="M22675 21050 c-8 -12 1 -199 10 -223 4 -10 14 -16 22 -13 8 3 25 -2
39 -10 26 -18 97 -15 117 5 18 18 12 70 -11 94 -17 18 -22 36 -22 74 0 81 -2
83 -80 83 -38 0 -72 -4 -75 -10z" />
        <path d="M18050 19990 c0 -5 5 -10 10 -10 6 0 10 5 10 10 0 6 -4 10 -10 10 -5
0 -10 -4 -10 -10z" />
        <path d="M2567 19943 c-4 -3 -7 -14 -7 -24 0 -10 -8 -23 -17 -29 -12 -7 -13
-10 -3 -7 8 2 22 -2 31 -10 27 -23 66 -7 73 29 3 17 6 34 6 39 0 10 -73 12
-83 2z" />
        <path d="M2674 19805 c-9 -23 14 -45 26 -25 5 8 8 19 7 24 -6 17 -27 18 -33 1z" />
        <path d="M33765 19809 c-10 -15 3 -25 16 -12 7 7 7 13 1 17 -6 3 -14 1 -17 -5z" />
        <path d="M293 19128 c-7 -13 -15 -31 -19 -40 -4 -12 -17 -18 -40 -18 -26 0
-43 -9 -70 -35 -34 -34 -42 -38 -119 -53 l-40 -8 -3 -57 -3 -57 33 0 c18 1 43
6 55 13 26 14 73 75 73 93 0 7 19 16 44 19 37 6 46 12 59 41 14 28 22 34 47
34 38 0 49 23 27 58 -20 35 -30 37 -44 10z" />
        <path d="M7690 19091 c0 -5 9 -11 20 -14 24 -6 27 8 4 17 -21 8 -24 8 -24 -3z" />
        <path d="M7610 19000 c0 -5 7 -10 15 -10 8 0 15 5 15 10 0 6 -7 10 -15 10 -8
0 -15 -4 -15 -10z" />
        <path d="M3409 18508 c-4 -58 4 -115 18 -125 13 -10 16 -53 17 -310 0 -164 -3
-319 -7 -345 -7 -43 -11 -48 -40 -53 -35 -7 -79 -41 -90 -68 -3 -9 -15 -17
-25 -17 -10 0 -27 -9 -37 -20 -24 -27 -98 -61 -138 -64 -18 -2 -43 -8 -56 -15
-21 -12 -53 -17 -137 -25 -17 -1 -53 -15 -79 -31 -42 -24 -64 -29 -157 -35
-97 -7 -110 -10 -128 -31 -10 -13 -17 -30 -15 -37 7 -19 -19 -42 -42 -36 -11
3 -26 -3 -37 -15 -11 -12 -32 -21 -47 -21 -31 0 -40 -18 -44 -85 -3 -65 -34
-155 -53 -155 -18 0 -62 -46 -62 -65 0 -20 -71 -24 -299 -17 -158 5 -215 10
-219 20 -6 19 -60 14 -91 -9 -26 -19 -30 -19 -67 -6 -128 47 -199 55 -401 41
-90 -6 -92 -6 -116 19 -22 24 -30 26 -93 24 -56 -3 -70 -6 -72 -20 -8 -40
-119 -34 -158 8 -13 14 -24 30 -24 35 0 5 -19 19 -42 31 -23 12 -48 28 -56 35
-7 8 -18 14 -23 14 -5 0 -9 7 -9 16 0 9 -9 18 -20 21 -11 3 -29 24 -40 47 -11
22 -27 52 -35 66 -8 14 -15 40 -15 59 0 47 -35 101 -66 101 -30 0 -55 45 -65
118 -8 59 -16 73 -28 53 -6 -10 -14 -7 -32 12 -30 31 -49 62 -49 82 0 8 -5 15
-11 15 -6 0 -9 -7 -5 -15 3 -9 0 -15 -10 -15 -9 0 -32 -13 -51 -30 -18 -16
-38 -30 -43 -30 -6 0 -10 -7 -10 -15 0 -17 -39 -35 -76 -35 l-24 0 0 -1460 0
-1460 23 0 c41 0 67 12 67 30 0 24 62 52 135 61 34 4 64 14 70 22 7 10 16 13
25 7 8 -5 25 -3 41 6 16 8 43 14 61 14 18 0 58 9 88 19 30 10 89 24 130 31 41
7 95 20 120 30 25 10 76 21 115 25 44 4 78 14 94 26 13 11 39 19 59 19 20 0
43 7 52 15 9 9 50 22 91 30 41 8 106 22 144 31 39 9 88 19 110 23 22 4 49 12
60 18 11 6 35 11 53 11 50 1 95 13 114 29 11 9 45 17 90 19 79 5 145 18 193
40 17 7 60 18 95 24 36 7 101 18 145 26 89 17 254 42 329 51 36 4 50 11 53 24
9 34 71 55 194 67 62 7 94 15 115 30 25 19 48 22 179 28 83 3 177 10 210 15
33 6 85 14 115 19 30 5 69 13 85 19 17 6 94 15 172 19 111 7 150 14 181 30 30
15 74 23 188 31 82 7 160 16 174 21 64 24 324 61 460 67 118 4 147 10 131 26
-6 6 -11 21 -11 34 0 13 -9 27 -22 34 -13 7 -27 18 -31 25 -4 8 -13 14 -19 14
-5 0 -23 11 -40 25 -16 14 -40 25 -53 25 -14 0 -32 13 -49 35 -17 22 -32 32
-41 28 -10 -3 -28 8 -48 29 -18 20 -43 40 -55 47 -14 7 -21 20 -19 34 2 17 -9
27 -49 47 -27 14 -61 35 -74 48 -13 12 -28 22 -32 22 -5 0 -23 14 -41 30 -17
17 -48 38 -67 48 -23 11 -41 31 -53 57 -38 85 -42 90 -72 93 -16 2 -41 12 -56
23 -15 10 -38 19 -52 19 -25 0 -57 23 -57 41 0 5 -6 9 -13 9 -8 0 -29 19 -47
41 l-33 42 24 18 c13 10 38 23 55 29 17 6 37 22 44 35 8 14 22 25 34 25 20 0
46 38 46 65 0 19 36 46 52 40 20 -8 64 85 72 150 3 28 2 111 -2 185 -4 74 -6
143 -4 153 3 10 21 25 41 33 30 13 46 13 101 3 36 -6 112 -13 170 -15 58 -2
114 -4 125 -4 28 -1 62 -26 70 -49 3 -12 17 -21 33 -23 30 -3 39 -29 27 -75
-5 -20 -9 -23 -18 -14 -21 21 -35 11 -42 -31 -4 -24 -12 -51 -17 -61 -6 -13
-4 -35 8 -73 15 -49 20 -55 40 -50 25 7 31 0 55 -58 35 -87 49 -47 42 124 -6
150 -6 152 6 240 5 41 10 80 10 87 1 11 29 27 86 48 l20 8 -20 4 c-11 2 -34
11 -52 19 -17 8 -40 14 -51 14 -30 0 -52 38 -52 88 0 53 -5 55 -124 56 l-91 1
-3 50 c-4 61 -13 73 -60 77 -37 3 -37 3 -40 53 -2 27 -8 55 -14 62 -7 9 -40
13 -104 13 -52 0 -94 4 -94 9 0 18 -51 63 -66 57 -34 -13 -66 6 -85 51 -10 25
-19 53 -19 63 0 35 -27 49 -91 47 -64 -1 -79 8 -79 50 0 25 -27 43 -63 43 -13
0 -34 11 -46 24 -20 21 -22 34 -21 102 1 44 1 85 1 92 -1 7 -17 20 -36 29 -27
13 -35 23 -35 43 0 35 -17 50 -57 50 -39 0 -56 25 -51 78 3 32 0 37 -19 40
-14 2 -23 -2 -24 -10z" />
        <path d="M832 17580 c0 -14 2 -19 5 -12 2 6 2 18 0 25 -3 6 -5 1 -5 -13z" />
        <path d="M665 17582 c-11 -11 8 -22 29 -16 33 8 48 -15 36 -57 -14 -49 -12
-92 5 -115 15 -19 15 -19 31 1 18 22 14 116 -6 140 -8 10 -7 17 5 29 18 18 17
18 -53 21 -23 0 -45 -1 -47 -3z" />
        <path d="M19623 17488 c-6 -7 -10 -20 -10 -28 -1 -8 -4 -22 -8 -32 -5 -12 1
-18 26 -23 38 -9 50 5 47 55 -2 27 -8 36 -24 38 -11 2 -25 -3 -31 -10z" />
        <path d="M19482 17279 c-27 -10 -27 -42 0 -47 19 -4 45 36 31 48 -4 4 -18 4
-31 -1z" />
        <path d="M5603 17085 c-30 -13 -32 -17 -26 -47 16 -82 45 -123 96 -132 30 -6
43 -3 64 13 14 12 36 21 49 21 53 0 90 125 45 150 -29 15 -190 12 -228 -5z" />
        <path d="M4721 16668 c1 -60 12 -92 32 -96 21 -4 23 36 3 93 -19 55 -36 57
-35 3z" />
        <path d="M4917 16533 c-15 -14 -6 -33 17 -39 35 -8 49 2 36 27 -10 19 -40 26
-53 12z" />
        <path d="M5335 16321 c-3 -6 10 -14 29 -19 18 -6 43 -19 54 -30 16 -16 32 -20
83 -19 40 1 64 7 67 15 2 7 -6 12 -20 13 -23 1 -23 1 2 8 14 4 26 15 28 24 3
15 -9 17 -117 17 -66 0 -122 -4 -126 -9z" />
        <path d="M31678 15443 c7 -3 16 -2 19 1 4 3 -2 6 -13 5 -11 0 -14 -3 -6 -6z" />
        <path d="M31650 13155 c7 -8 19 -15 26 -15 8 0 11 6 8 15 -4 8 -15 15 -26 15
-17 0 -18 -3 -8 -15z" />
        <path d="M34159 12960 c-18 -22 -41 -43 -51 -46 -10 -3 -21 -16 -24 -30 -3
-13 -10 -24 -15 -24 -5 0 -14 -11 -19 -25 -7 -19 -17 -25 -38 -25 -17 0 -36
-9 -48 -23 -19 -22 -25 -22 -109 -16 -49 4 -95 5 -102 2 -20 -8 -15 -41 7 -48
27 -9 39 -35 29 -63 -11 -30 -36 -38 -58 -18 -12 11 -36 16 -77 15 -66 0 -244
-38 -266 -56 -19 -16 -316 -35 -340 -22 -10 5 -18 16 -18 23 0 18 -23 26 -68
25 -65 -2 -87 -12 -88 -42 -1 -15 4 -34 10 -42 11 -16 111 -39 231 -55 93 -12
145 -24 172 -38 12 -7 35 -12 52 -12 16 0 36 -7 44 -15 15 -15 172 -35 272
-35 43 0 59 5 90 30 20 16 54 33 74 36 20 4 47 15 60 25 13 11 32 19 43 19 11
0 34 11 52 25 18 14 38 25 45 25 21 0 71 43 71 61 0 10 9 20 19 24 20 6 37 39
32 63 -4 23 39 72 64 72 20 0 25 6 30 44 8 49 -14 178 -31 183 -6 2 -27 -14
-45 -37z" />
        <path d="M32598 12710 c-29 -7 -35 -36 -10 -49 11 -6 56 -13 101 -17 76 -6 81
-6 81 13 0 38 -22 51 -87 55 -35 2 -73 1 -85 -2z" />
        <path d="M33071 12696 c-16 -19 -7 -46 14 -46 22 0 30 29 13 46 -13 13 -16 13
-27 0z" />
    </g>
</svg>
